<?xml version="1.0" encoding="utf-8"?>
<!-- Generator: Adobe Illustrator 16.0.0, SVG Export Plug-In . SVG Version: 6.00 Build 0)  -->
<!DOCTYPE svg PUBLIC "-//W3C//DTD SVG 1.1//EN" "http://www.w3.org/Graphics/SVG/1.1/DTD/svg11.dtd">
<svg version="1.1" xmlns="http://www.w3.org/2000/svg" xmlns:xlink="http://www.w3.org/1999/xlink" x="0px" y="0px" width="1024px"
	 height="768px" viewBox="0 0 1024 768" style="enable-background:new 0 0 1024 768;" xml:space="preserve">
<style type="text/css">
<![CDATA[
	.st0{fill:#7CCFDD;}
	.st1{fill:#F16A40;}
	.st2{fill:#23201C;}
	.st3{fill:none;stroke:#FFF6E4;stroke-width:5;stroke-miterlimit:10;}
	.st4{fill:#F5916C;}
	.st5{display:inline;fill:#23201C;stroke:#FFF6E4;stroke-width:3.8444;stroke-miterlimit:10;}
	.st6{fill:#FFF6E4;}
	.st7{display:inline;}
	.st8{display:none;}
]]>
</style>
<g id="redcircle">
	<circle class="st4" cx="526.244" cy="397.007" r="204.546"/>
</g>
<g id="nametext">
	<g>
		<path class="st1" d="M450.163,204.328l5.74-0.854c1.328-0.19,1.755-0.854,1.755-1.66c0-1.661-1.281-3.036-3.938-3.036
			c-2.751,0-4.27,1.755-4.459,3.795l-5.599-1.186c0.38-3.653,3.748-7.685,10.01-7.685c7.401,0,10.152,4.175,10.152,8.871v11.48
			c0,1.233,0.143,2.894,0.285,3.7h-5.788c-0.143-0.617-0.237-1.897-0.237-2.799c-1.186,1.85-3.415,3.463-6.879,3.463
			c-4.98,0-8.017-3.368-8.017-7.021C443.189,207.221,446.272,204.897,450.163,204.328z M457.658,208.312v-1.044l-5.266,0.807
			c-1.613,0.237-2.894,1.139-2.894,2.941c0,1.375,0.996,2.704,3.036,2.704C455.191,213.721,457.658,212.439,457.658,208.312z"/>
		<path class="st1" d="M481.231,217.753h-6.31v-23.34h6.12v2.894c1.423-2.419,4.222-3.511,6.736-3.511
			c5.787,0,8.444,4.127,8.444,9.251v14.706h-6.31v-13.615c0-2.609-1.281-4.649-4.317-4.649c-2.751,0-4.364,2.135-4.364,4.839
			V217.753z"/>
		<path class="st1" d="M511.398,217.516c0.427,2.562,2.466,4.412,5.456,4.412c3.984,0,6.214-1.993,6.214-6.5v-1.708
			c-0.948,1.518-3.131,2.989-6.499,2.989c-6.214,0-10.863-4.792-10.863-11.338c0-6.167,4.459-11.385,10.863-11.385
			c3.7,0,5.835,1.613,6.642,3.178v-2.751h6.072v20.826c0,6.404-3.463,12.239-12.239,12.239c-6.404,0-10.673-3.985-11.337-8.444
			L511.398,217.516z M523.163,205.371c0-3.605-2.468-5.882-5.503-5.882c-3.132,0-5.598,2.277-5.598,5.882
			c0,3.653,2.325,5.93,5.598,5.93C520.886,211.301,523.163,208.977,523.163,205.371z"/>
		<path class="st1" d="M561.348,211.064c-1.186,4.032-4.887,7.4-10.627,7.4c-6.404,0-12.049-4.602-12.049-12.477
			c0-7.448,5.503-12.287,11.48-12.287c7.21,0,11.527,4.602,11.527,12.097c0,0.901-0.095,1.85-0.095,1.945h-16.699
			c0.143,3.083,2.752,5.313,5.883,5.313c2.941,0,4.555-1.471,5.313-3.558L561.348,211.064z M555.465,203.426
			c-0.095-2.325-1.612-4.602-5.218-4.602c-3.273,0-5.076,2.467-5.219,4.602H555.465z"/>
		<path class="st1" d="M571.4,217.753v-34.346h6.31v34.346H571.4z"/>
		<path class="st1" d="M594.597,204.328l5.74-0.854c1.328-0.19,1.755-0.854,1.755-1.66c0-1.661-1.281-3.036-3.938-3.036
			c-2.751,0-4.27,1.755-4.459,3.795l-5.599-1.186c0.38-3.653,3.748-7.685,10.01-7.685c7.401,0,10.152,4.175,10.152,8.871v11.48
			c0,1.233,0.143,2.894,0.285,3.7h-5.788c-0.143-0.617-0.237-1.897-0.237-2.799c-1.186,1.85-3.415,3.463-6.879,3.463
			c-4.98,0-8.017-3.368-8.017-7.021C587.623,207.221,590.706,204.897,594.597,204.328z M602.092,208.312v-1.044l-5.266,0.807
			c-1.613,0.237-2.894,1.139-2.894,2.941c0,1.375,0.996,2.704,3.036,2.704C599.625,213.721,602.092,212.439,602.092,208.312z"/>
		<path class="st1" d="M379.936,265.187v-34.346h6.215v13.568c1.043-1.661,3.605-3.179,7.068-3.179
			c6.831,0,10.769,5.266,10.769,12.192c0,7.069-4.364,12.334-11.006,12.334c-3.226,0-5.692-1.423-6.926-3.416v2.846H379.936z
			 M391.891,246.875c-3.179,0-5.835,2.324-5.835,6.594c0,4.222,2.656,6.642,5.835,6.642c3.226,0,5.787-2.372,5.787-6.642
			S395.117,246.875,391.891,246.875z"/>
		<path class="st1" d="M419.259,251.762l5.74-0.854c1.328-0.19,1.755-0.854,1.755-1.661c0-1.66-1.281-3.036-3.938-3.036
			c-2.751,0-4.27,1.755-4.459,3.795l-5.599-1.186c0.38-3.653,3.748-7.685,10.01-7.685c7.401,0,10.152,4.175,10.152,8.871v11.48
			c0,1.233,0.143,2.894,0.285,3.7h-5.788c-0.143-0.617-0.237-1.897-0.237-2.799c-1.186,1.85-3.415,3.463-6.879,3.463
			c-4.98,0-8.017-3.368-8.017-7.021C412.286,254.655,415.369,252.331,419.259,251.762z M426.754,255.747v-1.044l-5.266,0.807
			c-1.613,0.237-2.894,1.139-2.894,2.941c0,1.375,0.996,2.704,3.036,2.704C424.288,261.155,426.754,259.874,426.754,255.747z"/>
		<path class="st1" d="M450.328,265.187h-6.31v-23.34h6.12v2.894c1.423-2.419,4.222-3.511,6.736-3.511
			c5.787,0,8.444,4.127,8.444,9.251v14.706h-6.31v-13.615c0-2.609-1.281-4.649-4.317-4.649c-2.751,0-4.364,2.135-4.364,4.839
			V265.187z"/>
		<path class="st1" d="M480.496,264.95c0.427,2.562,2.467,4.412,5.456,4.412c3.984,0,6.214-1.993,6.214-6.5v-1.708
			c-0.948,1.518-3.131,2.989-6.499,2.989c-6.215,0-10.863-4.792-10.863-11.338c0-6.167,4.459-11.385,10.863-11.385
			c3.7,0,5.835,1.613,6.642,3.178v-2.751h6.072v20.826c0,6.404-3.463,12.239-12.239,12.239c-6.404,0-10.674-3.985-11.338-8.444
			L480.496,264.95z M492.261,252.805c0-3.605-2.468-5.882-5.503-5.882c-3.132,0-5.599,2.277-5.599,5.882
			c0,3.653,2.325,5.93,5.599,5.93C489.984,258.735,492.261,256.411,492.261,252.805z"/>
		<path class="st1" d="M514.838,251.762l5.74-0.854c1.328-0.19,1.755-0.854,1.755-1.661c0-1.66-1.281-3.036-3.938-3.036
			c-2.751,0-4.27,1.755-4.459,3.795l-5.598-1.186c0.38-3.653,3.748-7.685,10.009-7.685c7.401,0,10.152,4.175,10.152,8.871v11.48
			c0,1.233,0.143,2.894,0.285,3.7h-5.788c-0.143-0.617-0.237-1.897-0.237-2.799c-1.186,1.85-3.415,3.463-6.879,3.463
			c-4.98,0-8.016-3.368-8.016-7.021C507.865,254.655,510.948,252.331,514.838,251.762z M522.333,255.747v-1.044l-5.266,0.807
			c-1.613,0.237-2.894,1.139-2.894,2.941c0,1.375,0.996,2.704,3.036,2.704C519.866,261.155,522.333,259.874,522.333,255.747z"/>
		<path class="st1" d="M545.906,265.187h-6.31v-23.34h6.12v2.894c1.423-2.419,4.222-3.511,6.736-3.511
			c5.787,0,8.444,4.127,8.444,9.251v14.706h-6.31v-13.615c0-2.609-1.281-4.649-4.317-4.649c-2.751,0-4.364,2.135-4.364,4.839
			V265.187z"/>
		<path class="st1" d="M576.073,264.95c0.427,2.562,2.467,4.412,5.456,4.412c3.984,0,6.214-1.993,6.214-6.5v-1.708
			c-0.948,1.518-3.131,2.989-6.499,2.989c-6.215,0-10.863-4.792-10.863-11.338c0-6.167,4.459-11.385,10.863-11.385
			c3.7,0,5.835,1.613,6.642,3.178v-2.751h6.072v20.826c0,6.404-3.463,12.239-12.239,12.239c-6.404,0-10.674-3.985-11.338-8.444
			L576.073,264.95z M587.839,252.805c0-3.605-2.468-5.882-5.503-5.882c-3.132,0-5.599,2.277-5.599,5.882
			c0,3.653,2.325,5.93,5.599,5.93C585.562,258.735,587.839,256.411,587.839,252.805z"/>
		<path class="st1" d="M626.022,258.498c-1.186,4.032-4.887,7.4-10.626,7.4c-6.405,0-12.05-4.602-12.05-12.477
			c0-7.448,5.503-12.287,11.48-12.287c7.21,0,11.527,4.602,11.527,12.097c0,0.901-0.095,1.85-0.095,1.945h-16.699
			c0.143,3.083,2.752,5.313,5.883,5.313c2.941,0,4.555-1.471,5.313-3.558L626.022,258.498z M620.14,250.86
			c-0.095-2.325-1.612-4.602-5.218-4.602c-3.273,0-5.076,2.467-5.219,4.602H620.14z"/>
		<path class="st1" d="M636.076,265.187v-34.346h6.31v34.346H636.076z"/>
		<path class="st1" d="M659.272,251.762l5.74-0.854c1.328-0.19,1.755-0.854,1.755-1.661c0-1.66-1.281-3.036-3.938-3.036
			c-2.751,0-4.27,1.755-4.459,3.795l-5.599-1.186c0.38-3.653,3.748-7.685,10.01-7.685c7.401,0,10.152,4.175,10.152,8.871v11.48
			c0,1.233,0.143,2.894,0.285,3.7h-5.788c-0.143-0.617-0.237-1.897-0.237-2.799c-1.186,1.85-3.415,3.463-6.879,3.463
			c-4.98,0-8.017-3.368-8.017-7.021C652.299,254.655,655.382,252.331,659.272,251.762z M666.768,255.747v-1.044l-5.266,0.807
			c-1.613,0.237-2.894,1.139-2.894,2.941c0,1.375,0.996,2.704,3.036,2.704C664.301,261.155,666.768,259.874,666.768,255.747z"/>
		<path class="st1" d="M343.721,312.384c0.427,2.562,2.467,4.412,5.456,4.412c3.984,0,6.214-1.993,6.214-6.5v-1.708
			c-0.948,1.518-3.131,2.989-6.499,2.989c-6.215,0-10.863-4.792-10.863-11.338c0-6.167,4.459-11.385,10.863-11.385
			c3.7,0,5.835,1.613,6.642,3.178v-2.751h6.072v20.826c0,6.404-3.463,12.239-12.239,12.239c-6.404,0-10.674-3.985-11.338-8.444
			L343.721,312.384z M355.487,300.24c0-3.605-2.467-5.882-5.504-5.882c-3.131,0-5.598,2.277-5.598,5.882
			c0,3.653,2.325,5.93,5.598,5.93C353.209,306.17,355.487,303.845,355.487,300.24z"/>
		<path class="st1" d="M393.67,305.933c-1.186,4.032-4.887,7.4-10.627,7.4c-6.404,0-12.049-4.602-12.049-12.477
			c0-7.448,5.503-12.287,11.48-12.287c7.21,0,11.527,4.602,11.527,12.097c0,0.901-0.095,1.85-0.095,1.945h-16.699
			c0.143,3.083,2.752,5.313,5.883,5.313c2.941,0,4.555-1.471,5.313-3.558L393.67,305.933z M387.788,298.295
			c-0.095-2.325-1.612-4.602-5.218-4.602c-3.273,0-5.076,2.467-5.219,4.602H387.788z"/>
		<path class="st1" d="M403.724,312.622v-34.346h6.31v34.346H403.724z"/>
		<path class="st1" d="M426.92,299.196l5.74-0.854c1.328-0.19,1.755-0.854,1.755-1.661c0-1.66-1.281-3.036-3.938-3.036
			c-2.751,0-4.27,1.755-4.459,3.795l-5.599-1.186c0.38-3.653,3.748-7.685,10.01-7.685c7.401,0,10.152,4.175,10.152,8.871v11.48
			c0,1.233,0.143,2.894,0.285,3.7h-5.788c-0.143-0.617-0.237-1.897-0.237-2.799c-1.186,1.85-3.415,3.463-6.879,3.463
			c-4.98,0-8.017-3.368-8.017-7.021C419.947,302.09,423.03,299.766,426.92,299.196z M434.416,303.181v-1.044l-5.266,0.807
			c-1.613,0.237-2.894,1.139-2.894,2.941c0,1.375,0.996,2.704,3.036,2.704C431.949,308.589,434.416,307.309,434.416,303.181z"/>
		<path class="st1" d="M451.679,312.622v-34.346h6.215v13.568c1.044-1.661,3.605-3.179,7.068-3.179
			c6.831,0,10.769,5.266,10.769,12.192c0,7.069-4.364,12.334-11.006,12.334c-3.226,0-5.692-1.423-6.926-3.416v2.846H451.679z
			 M463.634,294.31c-3.179,0-5.835,2.324-5.835,6.594c0,4.222,2.656,6.642,5.835,6.642c3.226,0,5.787-2.372,5.787-6.642
			S466.86,294.31,463.634,294.31z"/>
		<path class="st1" d="M491.002,299.196l5.74-0.854c1.328-0.19,1.755-0.854,1.755-1.661c0-1.66-1.281-3.036-3.938-3.036
			c-2.751,0-4.27,1.755-4.459,3.795l-5.599-1.186c0.38-3.653,3.748-7.685,10.01-7.685c7.401,0,10.152,4.175,10.152,8.871v11.48
			c0,1.233,0.143,2.894,0.285,3.7h-5.788c-0.143-0.617-0.237-1.897-0.237-2.799c-1.186,1.85-3.415,3.463-6.879,3.463
			c-4.98,0-8.017-3.368-8.017-7.021C484.029,302.09,487.112,299.766,491.002,299.196z M498.498,303.181v-1.044l-5.266,0.807
			c-1.613,0.237-2.894,1.139-2.894,2.941c0,1.375,0.996,2.704,3.036,2.704C496.031,308.589,498.498,307.309,498.498,303.181z"/>
		<path class="st1" d="M522.07,312.622h-6.31v-23.34h6.12v2.894c1.423-2.419,4.222-3.511,6.736-3.511
			c5.787,0,8.444,4.127,8.444,9.251v14.706h-6.31v-13.615c0-2.609-1.281-4.649-4.317-4.649c-2.751,0-4.364,2.135-4.364,4.839
			V312.622z"/>
		<path class="st1" d="M552.237,312.384c0.427,2.562,2.467,4.412,5.456,4.412c3.984,0,6.214-1.993,6.214-6.5v-1.708
			c-0.948,1.518-3.131,2.989-6.499,2.989c-6.215,0-10.863-4.792-10.863-11.338c0-6.167,4.459-11.385,10.863-11.385
			c3.7,0,5.835,1.613,6.642,3.178v-2.751h6.072v20.826c0,6.404-3.463,12.239-12.239,12.239c-6.404,0-10.674-3.985-11.338-8.444
			L552.237,312.384z M564.003,300.24c0-3.605-2.468-5.882-5.503-5.882c-3.132,0-5.599,2.277-5.599,5.882
			c0,3.653,2.325,5.93,5.599,5.93C561.726,306.17,564.003,303.845,564.003,300.24z"/>
		<path class="st1" d="M602.188,305.933c-1.186,4.032-4.887,7.4-10.627,7.4c-6.404,0-12.049-4.602-12.049-12.477
			c0-7.448,5.503-12.287,11.48-12.287c7.21,0,11.527,4.602,11.527,12.097c0,0.901-0.095,1.85-0.095,1.945h-16.699
			c0.143,3.083,2.752,5.313,5.883,5.313c2.941,0,4.555-1.471,5.313-3.558L602.188,305.933z M596.305,298.295
			c-0.095-2.325-1.612-4.602-5.218-4.602c-3.273,0-5.076,2.467-5.219,4.602H596.305z"/>
		<path class="st1" d="M612.24,312.622v-34.346h6.31v34.346H612.24z"/>
		<path class="st1" d="M635.437,299.196l5.74-0.854c1.328-0.19,1.755-0.854,1.755-1.661c0-1.66-1.281-3.036-3.938-3.036
			c-2.751,0-4.27,1.755-4.459,3.795l-5.599-1.186c0.38-3.653,3.748-7.685,10.01-7.685c7.401,0,10.152,4.175,10.152,8.871v11.48
			c0,1.233,0.143,2.894,0.285,3.7h-5.788c-0.143-0.617-0.237-1.897-0.237-2.799c-1.186,1.85-3.415,3.463-6.879,3.463
			c-4.98,0-8.017-3.368-8.017-7.021C628.463,302.09,631.546,299.766,635.437,299.196z M642.932,303.181v-1.044l-5.266,0.807
			c-1.613,0.237-2.894,1.139-2.894,2.941c0,1.375,0.996,2.704,3.036,2.704C640.465,308.589,642.932,307.309,642.932,303.181z"/>
		<path class="st1" d="M660.195,312.622v-34.346h6.215v13.568c1.043-1.661,3.605-3.179,7.068-3.179
			c6.831,0,10.769,5.266,10.769,12.192c0,7.069-4.364,12.334-11.006,12.334c-3.226,0-5.692-1.423-6.926-3.416v2.846H660.195z
			 M672.15,294.31c-3.179,0-5.835,2.324-5.835,6.594c0,4.222,2.656,6.642,5.835,6.642c3.226,0,5.787-2.372,5.787-6.642
			S675.376,294.31,672.15,294.31z"/>
		<path class="st1" d="M699.519,299.196l5.74-0.854c1.328-0.19,1.755-0.854,1.755-1.661c0-1.66-1.281-3.036-3.938-3.036
			c-2.751,0-4.27,1.755-4.459,3.795l-5.599-1.186c0.38-3.653,3.748-7.685,10.01-7.685c7.401,0,10.152,4.175,10.152,8.871v11.48
			c0,1.233,0.143,2.894,0.285,3.7h-5.788c-0.143-0.617-0.237-1.897-0.237-2.799c-1.186,1.85-3.415,3.463-6.879,3.463
			c-4.98,0-8.017-3.368-8.017-7.021C692.545,302.09,695.628,299.766,699.519,299.196z M707.014,303.181v-1.044l-5.266,0.807
			c-1.613,0.237-2.894,1.139-2.894,2.941c0,1.375,0.996,2.704,3.036,2.704C704.547,308.589,707.014,307.309,707.014,303.181z"/>
		<path class="st1" d="M327.499,359.818c0.427,2.562,2.467,4.412,5.456,4.412c3.984,0,6.214-1.993,6.214-6.5v-1.708
			c-0.948,1.518-3.131,2.989-6.499,2.989c-6.215,0-10.863-4.792-10.863-11.338c0-6.167,4.459-11.385,10.863-11.385
			c3.7,0,5.835,1.613,6.642,3.178v-2.751h6.072v20.826c0,6.404-3.463,12.239-12.239,12.239c-6.404,0-10.674-3.985-11.338-8.444
			L327.499,359.818z M339.264,347.674c0-3.605-2.467-5.882-5.504-5.882c-3.131,0-5.598,2.277-5.598,5.882
			c0,3.653,2.325,5.93,5.598,5.93C336.987,353.604,339.264,351.279,339.264,347.674z"/>
		<path class="st1" d="M377.448,353.367c-1.186,4.032-4.887,7.4-10.627,7.4c-6.404,0-12.049-4.602-12.049-12.477
			c0-7.448,5.503-12.287,11.48-12.287c7.21,0,11.527,4.602,11.527,12.097c0,0.901-0.095,1.85-0.095,1.945h-16.699
			c0.143,3.083,2.752,5.313,5.883,5.313c2.941,0,4.555-1.471,5.313-3.558L377.448,353.367z M371.565,345.729
			c-0.095-2.325-1.612-4.602-5.218-4.602c-3.273,0-5.076,2.467-5.219,4.602H371.565z"/>
		<path class="st1" d="M387.501,360.056v-34.346h6.31v34.346H387.501z"/>
		<path class="st1" d="M410.698,346.63l5.74-0.854c1.328-0.19,1.755-0.854,1.755-1.66c0-1.661-1.281-3.036-3.938-3.036
			c-2.751,0-4.27,1.755-4.459,3.795l-5.599-1.186c0.38-3.653,3.748-7.685,10.01-7.685c7.401,0,10.152,4.175,10.152,8.871v11.48
			c0,1.233,0.143,2.894,0.285,3.7h-5.788c-0.143-0.617-0.237-1.897-0.237-2.799c-1.186,1.85-3.415,3.463-6.879,3.463
			c-4.98,0-8.017-3.368-8.017-7.021C403.724,349.524,406.807,347.2,410.698,346.63z M418.193,350.615v-1.044l-5.266,0.807
			c-1.613,0.237-2.894,1.139-2.894,2.941c0,1.375,0.996,2.704,3.036,2.704C415.726,356.023,418.193,354.742,418.193,350.615z"/>
		<path class="st1" d="M435.457,360.056v-34.346h6.215v13.568c1.044-1.661,3.605-3.179,7.068-3.179
			c6.831,0,10.769,5.266,10.769,12.192c0,7.069-4.364,12.334-11.006,12.334c-3.226,0-5.692-1.423-6.926-3.416v2.846H435.457z
			 M447.412,341.744c-3.179,0-5.835,2.324-5.835,6.594c0,4.222,2.656,6.642,5.835,6.642c3.226,0,5.787-2.372,5.787-6.642
			S450.637,341.744,447.412,341.744z"/>
		<path class="st1" d="M474.78,346.63l5.74-0.854c1.328-0.19,1.755-0.854,1.755-1.66c0-1.661-1.281-3.036-3.938-3.036
			c-2.751,0-4.27,1.755-4.459,3.795l-5.599-1.186c0.38-3.653,3.748-7.685,10.01-7.685c7.401,0,10.152,4.175,10.152,8.871v11.48
			c0,1.233,0.143,2.894,0.285,3.7h-5.788c-0.143-0.617-0.237-1.897-0.237-2.799c-1.186,1.85-3.415,3.463-6.879,3.463
			c-4.98,0-8.017-3.368-8.017-7.021C467.806,349.524,470.889,347.2,474.78,346.63z M482.275,350.615v-1.044l-5.266,0.807
			c-1.613,0.237-2.894,1.139-2.894,2.941c0,1.375,0.996,2.704,3.036,2.704C479.808,356.023,482.275,354.742,482.275,350.615z"/>
		<path class="st1" d="M505.848,360.056h-6.31v-23.34h6.12v2.894c1.423-2.419,4.222-3.511,6.736-3.511
			c5.787,0,8.444,4.127,8.444,9.251v14.706h-6.31V346.44c0-2.609-1.281-4.649-4.317-4.649c-2.751,0-4.364,2.135-4.364,4.839V360.056
			z"/>
		<path class="st1" d="M536.015,359.818c0.427,2.562,2.467,4.412,5.456,4.412c3.984,0,6.214-1.993,6.214-6.5v-1.708
			c-0.948,1.518-3.131,2.989-6.499,2.989c-6.215,0-10.863-4.792-10.863-11.338c0-6.167,4.459-11.385,10.863-11.385
			c3.7,0,5.835,1.613,6.642,3.178v-2.751h6.072v20.826c0,6.404-3.463,12.239-12.239,12.239c-6.404,0-10.674-3.985-11.338-8.444
			L536.015,359.818z M547.78,347.674c0-3.605-2.468-5.882-5.503-5.882c-3.132,0-5.599,2.277-5.599,5.882
			c0,3.653,2.325,5.93,5.599,5.93C545.503,353.604,547.78,351.279,547.78,347.674z"/>
		<path class="st1" d="M585.965,353.367c-1.186,4.032-4.887,7.4-10.627,7.4c-6.404,0-12.049-4.602-12.049-12.477
			c0-7.448,5.503-12.287,11.48-12.287c7.21,0,11.527,4.602,11.527,12.097c0,0.901-0.095,1.85-0.095,1.945h-16.699
			c0.143,3.083,2.752,5.313,5.883,5.313c2.941,0,4.555-1.471,5.313-3.558L585.965,353.367z M580.082,345.729
			c-0.095-2.325-1.612-4.602-5.218-4.602c-3.273,0-5.076,2.467-5.219,4.602H580.082z"/>
		<path class="st1" d="M596.018,360.056v-34.346h6.31v34.346H596.018z"/>
		<path class="st1" d="M619.214,346.63l5.74-0.854c1.328-0.19,1.755-0.854,1.755-1.66c0-1.661-1.281-3.036-3.938-3.036
			c-2.751,0-4.27,1.755-4.459,3.795l-5.599-1.186c0.38-3.653,3.748-7.685,10.01-7.685c7.401,0,10.152,4.175,10.152,8.871v11.48
			c0,1.233,0.143,2.894,0.285,3.7h-5.788c-0.143-0.617-0.237-1.897-0.237-2.799c-1.186,1.85-3.415,3.463-6.879,3.463
			c-4.98,0-8.017-3.368-8.017-7.021C612.24,349.524,615.323,347.2,619.214,346.63z M626.709,350.615v-1.044l-5.266,0.807
			c-1.613,0.237-2.894,1.139-2.894,2.941c0,1.375,0.996,2.704,3.036,2.704C624.242,356.023,626.709,354.742,626.709,350.615z"/>
		<path class="st1" d="M643.973,360.056v-34.346h6.215v13.568c1.043-1.661,3.605-3.179,7.068-3.179
			c6.831,0,10.769,5.266,10.769,12.192c0,7.069-4.364,12.334-11.006,12.334c-3.226,0-5.692-1.423-6.926-3.416v2.846H643.973z
			 M655.928,341.744c-3.179,0-5.835,2.324-5.835,6.594c0,4.222,2.656,6.642,5.835,6.642c3.226,0,5.787-2.372,5.787-6.642
			S659.153,341.744,655.928,341.744z"/>
		<path class="st1" d="M683.296,346.63l5.74-0.854c1.328-0.19,1.755-0.854,1.755-1.66c0-1.661-1.281-3.036-3.938-3.036
			c-2.751,0-4.27,1.755-4.459,3.795l-5.599-1.186c0.38-3.653,3.748-7.685,10.01-7.685c7.401,0,10.152,4.175,10.152,8.871v11.48
			c0,1.233,0.143,2.894,0.285,3.7h-5.788c-0.143-0.617-0.237-1.897-0.237-2.799c-1.186,1.85-3.415,3.463-6.879,3.463
			c-4.98,0-8.017-3.368-8.017-7.021C676.322,349.524,679.405,347.2,683.296,346.63z M690.791,350.615v-1.044l-5.266,0.807
			c-1.613,0.237-2.894,1.139-2.894,2.941c0,1.375,0.996,2.704,3.036,2.704C688.324,356.023,690.791,354.742,690.791,350.615z"/>
		<path class="st1" d="M714.364,360.056h-6.31v-23.34h6.12v2.894c1.423-2.419,4.222-3.511,6.736-3.511
			c5.787,0,8.444,4.127,8.444,9.251v14.706h-6.31V346.44c0-2.609-1.281-4.649-4.317-4.649c-2.751,0-4.364,2.135-4.364,4.839V360.056
			z"/>
		<path class="st1" d="M327.973,407.253c0.427,2.562,2.467,4.412,5.456,4.412c3.984,0,6.214-1.992,6.214-6.499v-1.708
			c-0.948,1.519-3.131,2.989-6.499,2.989c-6.215,0-10.863-4.792-10.863-11.339c0-6.167,4.459-11.385,10.863-11.385
			c3.7,0,5.835,1.613,6.642,3.178v-2.751h6.072v20.827c0,6.404-3.463,12.239-12.239,12.239c-6.404,0-10.674-3.985-11.338-8.444
			L327.973,407.253z M339.739,395.108c0-3.605-2.467-5.882-5.504-5.882c-3.131,0-5.598,2.276-5.598,5.882
			c0,3.653,2.325,5.931,5.598,5.931C337.461,401.039,339.739,398.714,339.739,395.108z"/>
		<path class="st1" d="M377.922,400.802c-1.186,4.032-4.887,7.4-10.627,7.4c-6.404,0-12.049-4.602-12.049-12.477
			c0-7.448,5.503-12.287,11.48-12.287c7.21,0,11.527,4.602,11.527,12.098c0,0.901-0.095,1.85-0.095,1.944H361.46
			c0.143,3.084,2.752,5.313,5.883,5.313c2.941,0,4.555-1.471,5.313-3.558L377.922,400.802z M372.04,393.164
			c-0.095-2.325-1.612-4.602-5.218-4.602c-3.273,0-5.076,2.467-5.219,4.602H372.04z"/>
		<path class="st1" d="M387.976,407.49v-34.346h6.31v34.346H387.976z"/>
		<path class="st1" d="M411.172,394.065l5.74-0.854c1.328-0.189,1.755-0.854,1.755-1.66c0-1.66-1.281-3.036-3.938-3.036
			c-2.751,0-4.27,1.755-4.459,3.795l-5.599-1.186c0.38-3.653,3.748-7.686,10.01-7.686c7.401,0,10.152,4.175,10.152,8.871v11.48
			c0,1.233,0.143,2.894,0.285,3.7h-5.788c-0.143-0.616-0.237-1.897-0.237-2.799c-1.186,1.851-3.415,3.463-6.879,3.463
			c-4.98,0-8.017-3.368-8.017-7.021C404.199,396.959,407.282,394.635,411.172,394.065z M418.667,398.05v-1.044l-5.266,0.807
			c-1.613,0.237-2.894,1.139-2.894,2.941c0,1.376,0.996,2.704,3.036,2.704C416.201,403.458,418.667,402.177,418.667,398.05z"/>
		<path class="st1" d="M435.931,407.49v-34.346h6.215v13.568c1.044-1.66,3.605-3.179,7.068-3.179
			c6.831,0,10.769,5.266,10.769,12.192c0,7.068-4.364,12.334-11.006,12.334c-3.226,0-5.692-1.423-6.926-3.415v2.846H435.931z
			 M447.886,389.179c-3.179,0-5.835,2.324-5.835,6.594c0,4.223,2.656,6.642,5.835,6.642c3.226,0,5.787-2.372,5.787-6.642
			S451.112,389.179,447.886,389.179z"/>
		<path class="st1" d="M475.254,394.065l5.74-0.854c1.328-0.189,1.755-0.854,1.755-1.66c0-1.66-1.281-3.036-3.938-3.036
			c-2.751,0-4.27,1.755-4.459,3.795l-5.599-1.186c0.38-3.653,3.748-7.686,10.01-7.686c7.401,0,10.152,4.175,10.152,8.871v11.48
			c0,1.233,0.143,2.894,0.285,3.7h-5.788c-0.143-0.616-0.237-1.897-0.237-2.799c-1.186,1.851-3.415,3.463-6.879,3.463
			c-4.98,0-8.017-3.368-8.017-7.021C468.281,396.959,471.364,394.635,475.254,394.065z M482.75,398.05v-1.044l-5.266,0.807
			c-1.613,0.237-2.894,1.139-2.894,2.941c0,1.376,0.996,2.704,3.036,2.704C480.283,403.458,482.75,402.177,482.75,398.05z"/>
		<path class="st1" d="M506.323,407.49h-6.31v-23.34h6.12v2.894c1.423-2.419,4.222-3.511,6.736-3.511
			c5.787,0,8.444,4.128,8.444,9.251v14.706h-6.31v-13.615c0-2.608-1.281-4.648-4.317-4.648c-2.751,0-4.364,2.135-4.364,4.839V407.49
			z"/>
		<path class="st1" d="M536.489,407.253c0.427,2.562,2.467,4.412,5.456,4.412c3.984,0,6.214-1.992,6.214-6.499v-1.708
			c-0.948,1.519-3.131,2.989-6.499,2.989c-6.215,0-10.863-4.792-10.863-11.339c0-6.167,4.459-11.385,10.863-11.385
			c3.7,0,5.835,1.613,6.642,3.178v-2.751h6.072v20.827c0,6.404-3.463,12.239-12.239,12.239c-6.404,0-10.674-3.985-11.338-8.444
			L536.489,407.253z M548.255,395.108c0-3.605-2.468-5.882-5.503-5.882c-3.132,0-5.599,2.276-5.599,5.882
			c0,3.653,2.325,5.931,5.599,5.931C545.978,401.039,548.255,398.714,548.255,395.108z"/>
		<path class="st1" d="M570.832,394.065l5.74-0.854c1.328-0.189,1.755-0.854,1.755-1.66c0-1.66-1.281-3.036-3.938-3.036
			c-2.751,0-4.27,1.755-4.459,3.795l-5.599-1.186c0.38-3.653,3.748-7.686,10.01-7.686c7.401,0,10.152,4.175,10.152,8.871v11.48
			c0,1.233,0.143,2.894,0.285,3.7h-5.788c-0.143-0.616-0.237-1.897-0.237-2.799c-1.186,1.851-3.415,3.463-6.879,3.463
			c-4.98,0-8.017-3.368-8.017-7.021C563.858,396.959,566.941,394.635,570.832,394.065z M578.327,398.05v-1.044l-5.266,0.807
			c-1.613,0.237-2.894,1.139-2.894,2.941c0,1.376,0.996,2.704,3.036,2.704C575.86,403.458,578.327,402.177,578.327,398.05z"/>
		<path class="st1" d="M601.9,407.49h-6.31v-23.34h6.12v2.894c1.423-2.419,4.222-3.511,6.736-3.511c5.787,0,8.444,4.128,8.444,9.251
			v14.706h-6.31v-13.615c0-2.608-1.281-4.648-4.317-4.648c-2.751,0-4.364,2.135-4.364,4.839V407.49z"/>
		<path class="st1" d="M632.068,407.253c0.427,2.562,2.467,4.412,5.456,4.412c3.984,0,6.214-1.992,6.214-6.499v-1.708
			c-0.948,1.519-3.131,2.989-6.499,2.989c-6.215,0-10.863-4.792-10.863-11.339c0-6.167,4.459-11.385,10.863-11.385
			c3.7,0,5.835,1.613,6.642,3.178v-2.751h6.072v20.827c0,6.404-3.463,12.239-12.239,12.239c-6.404,0-10.674-3.985-11.338-8.444
			L632.068,407.253z M643.834,395.108c0-3.605-2.467-5.882-5.504-5.882c-3.131,0-5.598,2.276-5.598,5.882
			c0,3.653,2.325,5.931,5.598,5.931C641.557,401.039,643.834,398.714,643.834,395.108z"/>
		<path class="st1" d="M682.018,400.802c-1.186,4.032-4.887,7.4-10.627,7.4c-6.404,0-12.049-4.602-12.049-12.477
			c0-7.448,5.503-12.287,11.48-12.287c7.21,0,11.527,4.602,11.527,12.098c0,0.901-0.095,1.85-0.095,1.944h-16.699
			c0.143,3.084,2.752,5.313,5.883,5.313c2.941,0,4.555-1.471,5.313-3.558L682.018,400.802z M676.135,393.164
			c-0.095-2.325-1.612-4.602-5.218-4.602c-3.273,0-5.076,2.467-5.219,4.602H676.135z"/>
		<path class="st1" d="M692.07,407.49v-34.346h6.31v34.346H692.07z"/>
		<path class="st1" d="M715.267,394.065l5.74-0.854c1.328-0.189,1.755-0.854,1.755-1.66c0-1.66-1.281-3.036-3.938-3.036
			c-2.751,0-4.27,1.755-4.459,3.795l-5.599-1.186c0.38-3.653,3.748-7.686,10.01-7.686c7.401,0,10.152,4.175,10.152,8.871v11.48
			c0,1.233,0.143,2.894,0.285,3.7h-5.788c-0.143-0.616-0.237-1.897-0.237-2.799c-1.186,1.851-3.415,3.463-6.879,3.463
			c-4.98,0-8.017-3.368-8.017-7.021C708.293,396.959,711.376,394.635,715.267,394.065z M722.762,398.05v-1.044l-5.266,0.807
			c-1.613,0.237-2.894,1.139-2.894,2.941c0,1.376,0.996,2.704,3.036,2.704C720.295,403.458,722.762,402.177,722.762,398.05z"/>
		<path class="st1" d="M323.466,454.925v-34.346h6.215v13.567c1.044-1.66,3.605-3.179,7.068-3.179
			c6.831,0,10.769,5.266,10.769,12.192c0,7.068-4.364,12.334-11.006,12.334c-3.226,0-5.692-1.423-6.926-3.416v2.847H323.466z
			 M335.421,436.613c-3.179,0-5.835,2.324-5.835,6.594c0,4.223,2.656,6.642,5.835,6.642c3.226,0,5.787-2.372,5.787-6.642
			S338.647,436.613,335.421,436.613z"/>
		<path class="st1" d="M362.79,441.499l5.74-0.854c1.328-0.189,1.755-0.854,1.755-1.66c0-1.66-1.281-3.036-3.938-3.036
			c-2.751,0-4.27,1.755-4.459,3.795l-5.599-1.186c0.38-3.653,3.748-7.686,10.01-7.686c7.401,0,10.152,4.175,10.152,8.871v11.48
			c0,1.233,0.143,2.894,0.285,3.7h-5.788c-0.143-0.617-0.237-1.897-0.237-2.799c-1.186,1.85-3.415,3.463-6.879,3.463
			c-4.98,0-8.017-3.368-8.017-7.021C355.816,444.394,358.899,442.068,362.79,441.499z M370.285,445.484v-1.044l-5.266,0.807
			c-1.613,0.237-2.894,1.139-2.894,2.941c0,1.376,0.996,2.704,3.036,2.704C367.818,450.893,370.285,449.611,370.285,445.484z"/>
		<path class="st1" d="M393.858,454.925h-6.31v-23.34h6.12v2.894c1.423-2.419,4.222-3.511,6.736-3.511
			c5.787,0,8.444,4.128,8.444,9.251v14.706h-6.31V441.31c0-2.609-1.281-4.648-4.317-4.648c-2.751,0-4.364,2.134-4.364,4.838V454.925
			z"/>
		<path class="st1" d="M424.026,454.688c0.427,2.562,2.467,4.412,5.456,4.412c3.984,0,6.214-1.992,6.214-6.499v-1.708
			c-0.948,1.518-3.131,2.988-6.499,2.988c-6.215,0-10.863-4.791-10.863-11.338c0-6.167,4.459-11.385,10.863-11.385
			c3.7,0,5.835,1.612,6.642,3.178v-2.751h6.072v20.825c0,6.404-3.463,12.24-12.239,12.24c-6.404,0-10.674-3.985-11.338-8.444
			L424.026,454.688z M435.792,442.543c0-3.605-2.467-5.882-5.504-5.882c-3.131,0-5.598,2.276-5.598,5.882
			c0,3.653,2.325,5.93,5.598,5.93C433.514,448.473,435.792,446.148,435.792,442.543z"/>
		<path class="st1" d="M473.975,448.235c-1.186,4.033-4.887,7.401-10.627,7.401c-6.404,0-12.049-4.602-12.049-12.477
			c0-7.448,5.503-12.287,11.48-12.287c7.21,0,11.527,4.602,11.527,12.097c0,0.901-0.095,1.851-0.095,1.945h-16.699
			c0.143,3.084,2.752,5.313,5.883,5.313c2.941,0,4.555-1.471,5.313-3.559L473.975,448.235z M468.092,440.598
			c-0.095-2.324-1.612-4.601-5.218-4.601c-3.273,0-5.076,2.466-5.219,4.601H468.092z"/>
		<path class="st1" d="M484.028,454.925v-34.346h6.31v34.346H484.028z"/>
		<path class="st1" d="M507.224,441.499l5.74-0.854c1.328-0.189,1.754-0.854,1.754-1.66c0-1.66-1.281-3.036-3.937-3.036
			c-2.751,0-4.27,1.755-4.459,3.795l-5.599-1.186c0.38-3.653,3.748-7.686,10.01-7.686c7.401,0,10.152,4.175,10.152,8.871v11.48
			c0,1.233,0.143,2.894,0.285,3.7h-5.788c-0.143-0.617-0.237-1.897-0.237-2.799c-1.186,1.85-3.415,3.463-6.878,3.463
			c-4.98,0-8.017-3.368-8.017-7.021C500.25,444.394,503.333,442.068,507.224,441.499z M514.719,445.484v-1.044l-5.265,0.807
			c-1.613,0.237-2.894,1.139-2.894,2.941c0,1.376,0.996,2.704,3.036,2.704C512.252,450.893,514.719,449.611,514.719,445.484z"/>
		<path class="st1" d="M531.982,454.925v-34.346h6.215v13.567c1.043-1.66,3.605-3.179,7.068-3.179
			c6.831,0,10.769,5.266,10.769,12.192c0,7.068-4.364,12.334-11.006,12.334c-3.226,0-5.692-1.423-6.926-3.416v2.847H531.982z
			 M543.938,436.613c-3.179,0-5.835,2.324-5.835,6.594c0,4.223,2.656,6.642,5.835,6.642c3.226,0,5.787-2.372,5.787-6.642
			S547.163,436.613,543.938,436.613z"/>
		<path class="st1" d="M571.307,441.499l5.74-0.854c1.328-0.189,1.755-0.854,1.755-1.66c0-1.66-1.281-3.036-3.938-3.036
			c-2.751,0-4.27,1.755-4.459,3.795l-5.599-1.186c0.38-3.653,3.748-7.686,10.01-7.686c7.401,0,10.152,4.175,10.152,8.871v11.48
			c0,1.233,0.143,2.894,0.285,3.7h-5.788c-0.143-0.617-0.237-1.897-0.237-2.799c-1.186,1.85-3.415,3.463-6.879,3.463
			c-4.98,0-8.017-3.368-8.017-7.021C564.333,444.394,567.416,442.068,571.307,441.499z M578.802,445.484v-1.044l-5.266,0.807
			c-1.613,0.237-2.894,1.139-2.894,2.941c0,1.376,0.996,2.704,3.036,2.704C576.335,450.893,578.802,449.611,578.802,445.484z"/>
		<path class="st1" d="M602.375,454.925h-6.31v-23.34h6.12v2.894c1.423-2.419,4.222-3.511,6.736-3.511
			c5.787,0,8.444,4.128,8.444,9.251v14.706h-6.31V441.31c0-2.609-1.281-4.648-4.317-4.648c-2.751,0-4.364,2.134-4.364,4.838V454.925
			z"/>
		<path class="st1" d="M632.542,454.688c0.427,2.562,2.467,4.412,5.456,4.412c3.984,0,6.214-1.992,6.214-6.499v-1.708
			c-0.948,1.518-3.131,2.988-6.499,2.988c-6.215,0-10.863-4.791-10.863-11.338c0-6.167,4.459-11.385,10.863-11.385
			c3.7,0,5.835,1.612,6.642,3.178v-2.751h6.072v20.825c0,6.404-3.463,12.24-12.239,12.24c-6.404,0-10.674-3.985-11.338-8.444
			L632.542,454.688z M644.308,442.543c0-3.605-2.468-5.882-5.503-5.882c-3.132,0-5.599,2.276-5.599,5.882
			c0,3.653,2.325,5.93,5.599,5.93C642.03,448.473,644.308,446.148,644.308,442.543z"/>
		<path class="st1" d="M682.491,448.235c-1.186,4.033-4.887,7.401-10.626,7.401c-6.405,0-12.05-4.602-12.05-12.477
			c0-7.448,5.503-12.287,11.48-12.287c7.21,0,11.527,4.602,11.527,12.097c0,0.901-0.095,1.851-0.095,1.945h-16.699
			c0.143,3.084,2.752,5.313,5.883,5.313c2.941,0,4.555-1.471,5.313-3.559L682.491,448.235z M676.608,440.598
			c-0.095-2.324-1.612-4.601-5.218-4.601c-3.273,0-5.076,2.466-5.219,4.601H676.608z"/>
		<path class="st1" d="M692.545,454.925v-34.346h6.31v34.346H692.545z"/>
		<path class="st1" d="M715.741,441.499l5.74-0.854c1.328-0.189,1.755-0.854,1.755-1.66c0-1.66-1.281-3.036-3.938-3.036
			c-2.751,0-4.27,1.755-4.459,3.795l-5.599-1.186c0.38-3.653,3.748-7.686,10.01-7.686c7.401,0,10.152,4.175,10.152,8.871v11.48
			c0,1.233,0.143,2.894,0.285,3.7H723.9c-0.143-0.617-0.237-1.897-0.237-2.799c-1.186,1.85-3.415,3.463-6.879,3.463
			c-4.98,0-8.017-3.368-8.017-7.021C708.768,444.394,711.851,442.068,715.741,441.499z M723.236,445.484v-1.044l-5.266,0.807
			c-1.613,0.237-2.894,1.139-2.894,2.941c0,1.376,0.996,2.704,3.036,2.704C720.77,450.893,723.236,449.611,723.236,445.484z"/>
		<path class="st1" d="M338.55,502.358v-34.347h6.215v13.568c1.044-1.66,3.605-3.179,7.068-3.179
			c6.831,0,10.769,5.266,10.769,12.192c0,7.068-4.364,12.334-11.006,12.334c-3.226,0-5.692-1.423-6.926-3.416v2.847H338.55z
			 M350.505,484.047c-3.179,0-5.835,2.324-5.835,6.594c0,4.223,2.656,6.642,5.835,6.642c3.226,0,5.787-2.372,5.787-6.642
			S353.731,484.047,350.505,484.047z"/>
		<path class="st1" d="M377.874,488.933l5.74-0.854c1.328-0.189,1.755-0.854,1.755-1.66c0-1.66-1.281-3.036-3.938-3.036
			c-2.751,0-4.27,1.755-4.459,3.795l-5.599-1.186c0.38-3.653,3.748-7.686,10.01-7.686c7.401,0,10.152,4.175,10.152,8.871v11.48
			c0,1.233,0.143,2.894,0.285,3.7h-5.788c-0.143-0.617-0.237-1.897-0.237-2.799c-1.186,1.85-3.415,3.463-6.879,3.463
			c-4.98,0-8.017-3.368-8.017-7.021C370.9,491.827,373.983,489.502,377.874,488.933z M385.369,492.918v-1.044l-5.266,0.807
			c-1.613,0.237-2.894,1.139-2.894,2.941c0,1.376,0.996,2.704,3.036,2.704C382.902,498.326,385.369,497.045,385.369,492.918z"/>
		<path class="st1" d="M408.942,502.358h-6.31v-23.34h6.12v2.894c1.423-2.42,4.222-3.511,6.736-3.511
			c5.787,0,8.444,4.127,8.444,9.251v14.706h-6.31v-13.615c0-2.609-1.281-4.649-4.317-4.649c-2.751,0-4.364,2.135-4.364,4.839
			V502.358z"/>
		<path class="st1" d="M439.11,502.121c0.427,2.562,2.467,4.412,5.456,4.412c3.984,0,6.214-1.992,6.214-6.499v-1.708
			c-0.948,1.518-3.131,2.988-6.499,2.988c-6.215,0-10.863-4.791-10.863-11.338c0-6.167,4.459-11.386,10.863-11.386
			c3.7,0,5.835,1.613,6.642,3.179v-2.751h6.072v20.825c0,6.404-3.463,12.24-12.239,12.24c-6.404,0-10.674-3.985-11.338-8.444
			L439.11,502.121z M450.875,489.977c0-3.605-2.467-5.883-5.504-5.883c-3.131,0-5.598,2.277-5.598,5.883
			c0,3.653,2.325,5.93,5.598,5.93C448.598,495.906,450.875,493.582,450.875,489.977z"/>
		<path class="st1" d="M489.059,495.669c-1.186,4.033-4.887,7.401-10.627,7.401c-6.404,0-12.049-4.602-12.049-12.477
			c0-7.448,5.503-12.287,11.48-12.287c7.21,0,11.527,4.602,11.527,12.097c0,0.901-0.095,1.851-0.095,1.945h-16.699
			c0.143,3.084,2.752,5.313,5.883,5.313c2.941,0,4.555-1.471,5.313-3.559L489.059,495.669z M483.176,488.031
			c-0.095-2.324-1.612-4.602-5.218-4.602c-3.273,0-5.076,2.467-5.219,4.602H483.176z"/>
		<path class="st1" d="M499.112,502.358v-34.347h6.31v34.347H499.112z"/>
		<path class="st1" d="M522.308,488.933l5.74-0.854c1.328-0.189,1.755-0.854,1.755-1.66c0-1.66-1.281-3.036-3.938-3.036
			c-2.751,0-4.27,1.755-4.459,3.795l-5.599-1.186c0.38-3.653,3.748-7.686,10.01-7.686c7.401,0,10.152,4.175,10.152,8.871v11.48
			c0,1.233,0.143,2.894,0.285,3.7h-5.788c-0.143-0.617-0.237-1.897-0.237-2.799c-1.186,1.85-3.415,3.463-6.879,3.463
			c-4.98,0-8.017-3.368-8.017-7.021C515.334,491.827,518.417,489.502,522.308,488.933z M529.803,492.918v-1.044l-5.266,0.807
			c-1.613,0.237-2.894,1.139-2.894,2.941c0,1.376,0.996,2.704,3.036,2.704C527.336,498.326,529.803,497.045,529.803,492.918z"/>
		<path class="st1" d="M547.066,502.358v-34.347h6.215v13.568c1.043-1.66,3.605-3.179,7.068-3.179
			c6.831,0,10.769,5.266,10.769,12.192c0,7.068-4.364,12.334-11.006,12.334c-3.226,0-5.692-1.423-6.926-3.416v2.847H547.066z
			 M559.021,484.047c-3.179,0-5.835,2.324-5.835,6.594c0,4.223,2.656,6.642,5.835,6.642c3.226,0,5.787-2.372,5.787-6.642
			S562.247,484.047,559.021,484.047z"/>
		<path class="st1" d="M586.391,488.933l5.74-0.854c1.328-0.189,1.755-0.854,1.755-1.66c0-1.66-1.281-3.036-3.938-3.036
			c-2.751,0-4.27,1.755-4.459,3.795l-5.599-1.186c0.38-3.653,3.748-7.686,10.01-7.686c7.401,0,10.152,4.175,10.152,8.871v11.48
			c0,1.233,0.143,2.894,0.285,3.7h-5.788c-0.143-0.617-0.237-1.897-0.237-2.799c-1.186,1.85-3.415,3.463-6.879,3.463
			c-4.98,0-8.017-3.368-8.017-7.021C579.417,491.827,582.5,489.502,586.391,488.933z M593.886,492.918v-1.044l-5.266,0.807
			c-1.613,0.237-2.894,1.139-2.894,2.941c0,1.376,0.996,2.704,3.036,2.704C591.419,498.326,593.886,497.045,593.886,492.918z"/>
		<path class="st1" d="M617.459,502.358h-6.31v-23.34h6.12v2.894c1.423-2.42,4.222-3.511,6.736-3.511
			c5.787,0,8.444,4.127,8.444,9.251v14.706h-6.31v-13.615c0-2.609-1.281-4.649-4.317-4.649c-2.751,0-4.364,2.135-4.364,4.839
			V502.358z"/>
		<path class="st1" d="M647.626,502.121c0.427,2.562,2.467,4.412,5.456,4.412c3.984,0,6.214-1.992,6.214-6.499v-1.708
			c-0.948,1.518-3.131,2.988-6.499,2.988c-6.215,0-10.863-4.791-10.863-11.338c0-6.167,4.459-11.386,10.863-11.386
			c3.7,0,5.835,1.613,6.642,3.179v-2.751h6.072v20.825c0,6.404-3.463,12.24-12.239,12.24c-6.404,0-10.674-3.985-11.338-8.444
			L647.626,502.121z M659.392,489.977c0-3.605-2.468-5.883-5.503-5.883c-3.132,0-5.599,2.277-5.599,5.883
			c0,3.653,2.325,5.93,5.599,5.93C657.114,495.906,659.392,493.582,659.392,489.977z"/>
		<path class="st1" d="M697.575,495.669c-1.186,4.033-4.887,7.401-10.626,7.401c-6.405,0-12.05-4.602-12.05-12.477
			c0-7.448,5.503-12.287,11.48-12.287c7.21,0,11.527,4.602,11.527,12.097c0,0.901-0.095,1.851-0.095,1.945h-16.699
			c0.143,3.084,2.752,5.313,5.883,5.313c2.941,0,4.555-1.471,5.313-3.559L697.575,495.669z M691.692,488.031
			c-0.095-2.324-1.612-4.602-5.218-4.602c-3.273,0-5.076,2.467-5.219,4.602H691.692z"/>
		<path class="st1" d="M707.629,502.358v-34.347h6.31v34.347H707.629z"/>
		<path class="st1" d="M385.416,536.367l5.74-0.854c1.328-0.189,1.755-0.854,1.755-1.66c0-1.66-1.281-3.036-3.938-3.036
			c-2.751,0-4.27,1.755-4.459,3.795l-5.599-1.186c0.38-3.653,3.748-7.686,10.01-7.686c7.401,0,10.152,4.175,10.152,8.871v11.48
			c0,1.233,0.143,2.894,0.285,3.7h-5.788c-0.143-0.617-0.237-1.897-0.237-2.799c-1.186,1.85-3.415,3.463-6.879,3.463
			c-4.98,0-8.017-3.368-8.017-7.021C378.442,539.262,381.525,536.937,385.416,536.367z M392.911,540.353v-1.044l-5.266,0.807
			c-1.613,0.237-2.894,1.139-2.894,2.941c0,1.376,0.996,2.704,3.036,2.704C390.444,545.761,392.911,544.479,392.911,540.353z"/>
		<path class="st1" d="M410.174,549.793v-34.347h6.215v13.568c1.043-1.66,3.605-3.179,7.068-3.179
			c6.831,0,10.769,5.266,10.769,12.192c0,7.068-4.364,12.334-11.006,12.334c-3.226,0-5.692-1.423-6.926-3.416v2.847H410.174z
			 M422.129,531.481c-3.179,0-5.835,2.324-5.835,6.594c0,4.223,2.656,6.642,5.835,6.642c3.226,0,5.787-2.372,5.787-6.642
			S425.355,531.481,422.129,531.481z"/>
		<path class="st1" d="M449.498,536.367l5.74-0.854c1.328-0.189,1.755-0.854,1.755-1.66c0-1.66-1.281-3.036-3.938-3.036
			c-2.751,0-4.27,1.755-4.459,3.795l-5.599-1.186c0.38-3.653,3.748-7.686,10.01-7.686c7.401,0,10.152,4.175,10.152,8.871v11.48
			c0,1.233,0.143,2.894,0.285,3.7h-5.788c-0.143-0.617-0.237-1.897-0.237-2.799c-1.186,1.85-3.415,3.463-6.879,3.463
			c-4.98,0-8.017-3.368-8.017-7.021C442.524,539.262,445.607,536.937,449.498,536.367z M456.993,540.353v-1.044l-5.266,0.807
			c-1.613,0.237-2.894,1.139-2.894,2.941c0,1.376,0.996,2.704,3.036,2.704C454.526,545.761,456.993,544.479,456.993,540.353z"/>
		<path class="st1" d="M480.566,549.793h-6.31v-23.34h6.12v2.894c1.423-2.42,4.222-3.511,6.736-3.511
			c5.787,0,8.444,4.127,8.444,9.251v14.706h-6.31v-13.615c0-2.609-1.281-4.649-4.317-4.649c-2.751,0-4.364,2.135-4.364,4.839
			V549.793z"/>
		<path class="st1" d="M510.734,549.556c0.427,2.562,2.466,4.412,5.456,4.412c3.984,0,6.214-1.992,6.214-6.499v-1.708
			c-0.948,1.518-3.131,2.988-6.499,2.988c-6.214,0-10.863-4.791-10.863-11.338c0-6.167,4.459-11.386,10.863-11.386
			c3.7,0,5.835,1.613,6.642,3.179v-2.751h6.072v20.825c0,6.404-3.463,12.24-12.239,12.24c-6.404,0-10.673-3.985-11.337-8.444
			L510.734,549.556z M522.499,537.411c0-3.605-2.468-5.883-5.503-5.883c-3.132,0-5.598,2.277-5.598,5.883
			c0,3.653,2.325,5.93,5.598,5.93C520.222,543.341,522.499,541.017,522.499,537.411z"/>
		<path class="st1" d="M545.076,536.367l5.74-0.854c1.328-0.189,1.755-0.854,1.755-1.66c0-1.66-1.281-3.036-3.938-3.036
			c-2.751,0-4.27,1.755-4.459,3.795l-5.599-1.186c0.38-3.653,3.748-7.686,10.01-7.686c7.401,0,10.152,4.175,10.152,8.871v11.48
			c0,1.233,0.143,2.894,0.285,3.7h-5.788c-0.143-0.617-0.237-1.897-0.237-2.799c-1.186,1.85-3.415,3.463-6.879,3.463
			c-4.98,0-8.017-3.368-8.017-7.021C538.103,539.262,541.186,536.937,545.076,536.367z M552.571,540.353v-1.044l-5.266,0.807
			c-1.613,0.237-2.894,1.139-2.894,2.941c0,1.376,0.996,2.704,3.036,2.704C550.104,545.761,552.571,544.479,552.571,540.353z"/>
		<path class="st1" d="M576.145,549.793h-6.31v-23.34h6.12v2.894c1.423-2.42,4.222-3.511,6.736-3.511
			c5.787,0,8.444,4.127,8.444,9.251v14.706h-6.31v-13.615c0-2.609-1.281-4.649-4.317-4.649c-2.751,0-4.364,2.135-4.364,4.839
			V549.793z"/>
		<path class="st1" d="M606.312,549.556c0.427,2.562,2.467,4.412,5.456,4.412c3.984,0,6.214-1.992,6.214-6.499v-1.708
			c-0.948,1.518-3.131,2.988-6.499,2.988c-6.215,0-10.863-4.791-10.863-11.338c0-6.167,4.459-11.386,10.863-11.386
			c3.7,0,5.835,1.613,6.642,3.179v-2.751h6.072v20.825c0,6.404-3.463,12.24-12.239,12.24c-6.404,0-10.674-3.985-11.338-8.444
			L606.312,549.556z M618.077,537.411c0-3.605-2.468-5.883-5.503-5.883c-3.132,0-5.599,2.277-5.599,5.883
			c0,3.653,2.325,5.93,5.599,5.93C615.8,543.341,618.077,541.017,618.077,537.411z"/>
		<path class="st1" d="M656.261,543.104c-1.186,4.033-4.887,7.401-10.626,7.401c-6.405,0-12.05-4.602-12.05-12.477
			c0-7.448,5.503-12.287,11.48-12.287c7.21,0,11.527,4.602,11.527,12.097c0,0.901-0.095,1.851-0.095,1.945h-16.699
			c0.143,3.084,2.752,5.313,5.883,5.313c2.941,0,4.555-1.471,5.313-3.559L656.261,543.104z M650.378,535.466
			c-0.095-2.324-1.612-4.602-5.218-4.602c-3.273,0-5.076,2.467-5.219,4.602H650.378z"/>
		<path class="st1" d="M666.314,549.793v-34.347h6.31v34.347H666.314z"/>
		<path class="st1" d="M457.585,583.802l5.74-0.854c1.328-0.189,1.755-0.854,1.755-1.66c0-1.66-1.281-3.036-3.938-3.036
			c-2.751,0-4.27,1.755-4.459,3.795l-5.599-1.186c0.38-3.653,3.748-7.686,10.01-7.686c7.401,0,10.152,4.175,10.152,8.871v11.48
			c0,1.233,0.143,2.894,0.285,3.7h-5.788c-0.143-0.617-0.237-1.897-0.237-2.799c-1.186,1.85-3.415,3.463-6.879,3.463
			c-4.98,0-8.017-3.368-8.017-7.021C450.612,586.696,453.695,584.371,457.585,583.802z M465.081,587.787v-1.044l-5.266,0.807
			c-1.613,0.237-2.894,1.139-2.894,2.941c0,1.376,0.996,2.704,3.036,2.704C462.614,593.195,465.081,591.914,465.081,587.787z"/>
		<path class="st1" d="M482.344,597.228v-34.347h6.215v13.568c1.043-1.66,3.605-3.179,7.068-3.179
			c6.831,0,10.769,5.266,10.769,12.192c0,7.068-4.364,12.334-11.006,12.334c-3.226,0-5.692-1.423-6.926-3.416v2.847H482.344z
			 M494.299,578.916c-3.179,0-5.835,2.324-5.835,6.594c0,4.223,2.656,6.642,5.835,6.642c3.226,0,5.787-2.372,5.787-6.642
			S497.525,578.916,494.299,578.916z"/>
		<path class="st1" d="M521.667,583.802l5.74-0.854c1.328-0.189,1.755-0.854,1.755-1.66c0-1.66-1.281-3.036-3.938-3.036
			c-2.751,0-4.27,1.755-4.459,3.795l-5.599-1.186c0.38-3.653,3.748-7.686,10.01-7.686c7.401,0,10.152,4.175,10.152,8.871v11.48
			c0,1.233,0.143,2.894,0.285,3.7h-5.788c-0.143-0.617-0.237-1.897-0.237-2.799c-1.186,1.85-3.415,3.463-6.879,3.463
			c-4.98,0-8.017-3.368-8.017-7.021C514.693,586.696,517.776,584.371,521.667,583.802z M529.162,587.787v-1.044l-5.266,0.807
			c-1.613,0.237-2.894,1.139-2.894,2.941c0,1.376,0.996,2.704,3.036,2.704C526.695,593.195,529.162,591.914,529.162,587.787z"/>
		<path class="st1" d="M552.735,597.228h-6.31v-23.34h6.12v2.894c1.423-2.42,4.222-3.511,6.736-3.511
			c5.787,0,8.444,4.127,8.444,9.251v14.706h-6.31v-13.615c0-2.609-1.281-4.649-4.317-4.649c-2.751,0-4.364,2.135-4.364,4.839
			V597.228z"/>
		<path class="st1" d="M582.903,596.99c0.427,2.562,2.467,4.412,5.456,4.412c3.984,0,6.214-1.992,6.214-6.499v-1.708
			c-0.948,1.518-3.131,2.988-6.499,2.988c-6.215,0-10.863-4.791-10.863-11.338c0-6.167,4.459-11.386,10.863-11.386
			c3.7,0,5.835,1.613,6.642,3.179v-2.751h6.072v20.825c0,6.404-3.463,12.24-12.239,12.24c-6.404,0-10.674-3.985-11.338-8.444
			L582.903,596.99z M594.669,584.846c0-3.605-2.468-5.883-5.503-5.883c-3.132,0-5.599,2.277-5.599,5.883
			c0,3.653,2.325,5.93,5.599,5.93C592.392,590.775,594.669,588.451,594.669,584.846z"/>
	</g>
</g>
<g id="speechbubble_x5F_shadow">
	<g>
		
			<image style="overflow:visible;" width="418" height="204" xlink:href="EC78E5CC2709665B.png"  transform="matrix(1 0 0 1 308 261)">
		</image>
	</g>
</g>
<g id="speechbubble">
	<g>
		<path class="st2" d="M689,286H368c-6.627,0-15,2.373-15,9v19c0,6.627,8.373,15,15,15h304.183l-15.517,87.583l35.878-90.956
			C696.647,323.72,698,318.823,698,314v-19C698,288.373,695.627,286,689,286z"/>
		<path class="st3" d="M689,285.5H368c-6.627,0-14.5,2.873-14.5,9.5v19c0,6.627,7.873,14.5,14.5,14.5h304.183l-15.517,87.833
			l36.128-90.831c4.104-1.907,5.706-6.679,5.706-11.502v-19C698.5,288.373,695.627,285.5,689,285.5z"/>
	</g>
</g>
<g id="speechtext">
	<g>
		<path class="st6" d="M375.645,305.796c0-0.336-0.042-2.857-0.056-3.068c-0.028-0.336-0.168-0.476-0.701-0.476h-0.812
			c-0.07,0-0.112-0.028-0.112-0.084v-0.378c0-0.056,0.042-0.084,0.098-0.084c0.168,0,0.882,0.042,2.185,0.042
			c1.247,0,1.695-0.042,1.891-0.042c0.07,0,0.098,0.042,0.098,0.098v0.35c0,0.07-0.042,0.098-0.112,0.098h-0.658
			c-0.28,0-0.49,0.112-0.49,0.392c0,0.14-0.042,3.236-0.042,3.404v1.079c0,0.14,0.042,3.376,0.042,3.53
			c0,0.435,0.21,0.504,0.658,0.504h0.574c0.07,0,0.112,0.028,0.112,0.098v0.364c0,0.056-0.042,0.084-0.126,0.084
			c-0.168,0-0.728-0.042-1.947-0.042c-1.331,0-1.933,0.042-2.087,0.042c-0.07,0-0.112-0.028-0.112-0.084v-0.378
			c0-0.056,0.042-0.084,0.112-0.084h0.785c0.28,0,0.574-0.042,0.63-0.406c0.028-0.21,0.07-3.236,0.07-3.978V305.796z"/>
		<path class="st6" d="M382.687,302.743c0,1.317-1.218,2.213-1.471,2.367c-0.07,0.042-0.14,0.112-0.252,0.112
			c-0.098,0-0.14-0.042-0.14-0.112c0-0.07,0-0.098,0.112-0.182c0.294-0.28,0.883-0.896,0.883-1.583c0-0.182-0.112-0.351-0.21-0.393
			c-0.126-0.056-0.714-0.196-0.714-0.812c0-0.322,0.252-0.602,0.701-0.602C382.029,301.538,382.687,301.958,382.687,302.743z"/>
		<path class="st6" d="M389.157,308.08c0-1.037-0.196-1.303-0.42-1.513c-0.182-0.168-0.588-0.252-0.896-0.252
			c-0.364,0-0.953,0.182-1.345,0.812c-0.168,0.28-0.196,0.546-0.196,0.938v2.773c0,0.224,0.084,0.364,0.28,0.364h0.504
			c0.126,0,0.14,0.028,0.14,0.126v0.224c0,0.098-0.014,0.154-0.112,0.154c-0.126,0-0.504-0.042-1.275-0.042
			c-0.742,0-1.19,0.042-1.303,0.042c-0.084,0-0.112-0.028-0.112-0.126v-0.252c0-0.112,0.028-0.126,0.168-0.126h0.476
			c0.126,0,0.196-0.084,0.21-0.35c0.014-0.238,0.014-0.49,0.014-0.729v-2.493c0-0.28-0.056-0.532-0.392-0.714l-0.294-0.154
			c-0.07-0.042-0.098-0.07-0.098-0.112v-0.112c0-0.042,0.056-0.098,0.084-0.112l1.232-0.63c0.112-0.056,0.21-0.084,0.267-0.084
			c0.084,0,0.126,0.098,0.126,0.196l0.056,0.812h0.042c0.42-0.574,1.247-1.064,2.059-1.064c0.728,0,1.289,0.42,1.583,1.079h0.07
			c0.42-0.546,1.219-1.079,2.059-1.079c0.49,0,0.924,0.084,1.261,0.42c0.322,0.336,0.672,0.644,0.672,1.723v3.124
			c0,0.21,0.126,0.28,0.294,0.28h0.378c0.126,0,0.154,0.028,0.154,0.126v0.238c0,0.098-0.028,0.14-0.098,0.14
			c-0.098,0-0.49-0.042-1.163-0.042c-0.7,0-1.205,0.042-1.303,0.042c-0.084,0-0.112-0.042-0.112-0.14v-0.238
			c0-0.098,0.028-0.126,0.182-0.126h0.35c0.154,0,0.266-0.07,0.28-0.266c0.028-0.322,0.028-0.826,0.028-1.134v-2.073
			c0-0.462-0.084-0.869-0.406-1.121c-0.252-0.196-0.616-0.294-1.037-0.294c-0.42,0-0.994,0.322-1.218,0.729
			c-0.21,0.406-0.196,0.785-0.196,1.415v2.423c0,0.182,0.07,0.322,0.28,0.322h0.476c0.126,0,0.154,0.028,0.154,0.126v0.224
			c0,0.112-0.028,0.154-0.098,0.154c-0.098,0-0.462-0.042-1.247-0.042c-0.757,0-1.233,0.042-1.317,0.042
			c-0.07,0-0.098-0.042-0.098-0.14v-0.224c0-0.112,0.014-0.14,0.14-0.14h0.406c0.224,0,0.308-0.056,0.308-0.238V308.08z"/>
		<path class="st6" d="M404.625,307.771c-0.14,0.35-0.911,2.479-0.981,2.773c-0.014,0.098-0.042,0.238-0.042,0.308
			c0,0.196,0.168,0.308,0.477,0.308h0.658c0.098,0,0.14,0.028,0.14,0.098v0.322c0,0.098-0.042,0.126-0.112,0.126
			c-0.196,0-0.77-0.042-1.597-0.042c-1.022,0-1.331,0.042-1.527,0.042c-0.07,0-0.098-0.028-0.098-0.112v-0.336
			c0-0.07,0.056-0.098,0.112-0.098h0.49c0.42,0,0.616-0.196,0.812-0.644c0.098-0.224,1.121-2.816,1.527-3.964
			c0.098-0.28,1.232-3.292,1.358-3.67c0.042-0.14,0.112-0.322,0.014-0.476c-0.042-0.056-0.098-0.126-0.098-0.182
			c0-0.042,0.028-0.098,0.126-0.126c0.393-0.084,1.009-0.504,1.163-0.7c0.07-0.07,0.112-0.126,0.182-0.126
			c0.084,0,0.112,0.084,0.154,0.238c0.266,0.882,1.359,4.02,1.625,4.917c0.322,1.092,1.232,3.698,1.429,4.104
			c0.238,0.462,0.602,0.63,0.953,0.63h0.462c0.084,0,0.112,0.042,0.112,0.098v0.35c0,0.07-0.042,0.098-0.14,0.098
			c-0.252,0-0.546-0.042-1.681-0.042c-1.163,0-1.653,0.042-1.975,0.042c-0.07,0-0.112-0.042-0.112-0.126v-0.322
			c0-0.084,0.042-0.098,0.126-0.098h0.35c0.393,0,0.519-0.14,0.42-0.532c-0.112-0.504-0.687-2.297-0.882-2.857H404.625z
			 M407.903,307.267c-0.126-0.42-1.26-3.922-1.331-4.132c-0.042-0.098-0.07-0.196-0.112-0.196c-0.056,0-0.112,0.098-0.154,0.21
			c-0.07,0.182-1.401,3.768-1.499,4.118H407.903z"/>
		<path class="st6" d="M419.565,310.909c0,0.224,0.126,0.294,0.308,0.294h0.448c0.126,0,0.154,0.042,0.154,0.126v0.224
			c0,0.098-0.028,0.154-0.112,0.154c-0.098,0-0.532-0.042-1.331-0.042c-0.714,0-1.163,0.042-1.261,0.042
			c-0.084,0-0.112-0.042-0.112-0.154v-0.224c0-0.098,0.042-0.126,0.182-0.126h0.406c0.154,0,0.266-0.07,0.28-0.322
			c0.014-0.364,0.028-0.812,0.028-1.177v-1.849c0-0.56,0-0.966-0.406-1.261c-0.336-0.252-0.672-0.252-1.023-0.252
			c-0.224,0-0.714,0.098-1.134,0.546c-0.28,0.308-0.322,0.686-0.322,0.952v2.9c0,0.378,0.042,0.462,0.336,0.462h0.351
			c0.112,0,0.14,0.042,0.14,0.14v0.238c0,0.084-0.028,0.126-0.098,0.126c-0.098,0-0.477-0.042-1.219-0.042
			c-0.714,0-1.163,0.042-1.247,0.042c-0.07,0-0.098-0.042-0.098-0.126v-0.252c0-0.084,0.028-0.126,0.14-0.126h0.406
			c0.182,0,0.28-0.042,0.28-0.28v-3.278c0-0.42-0.224-0.659-0.574-0.827l-0.112-0.056c-0.098-0.042-0.112-0.084-0.112-0.126v-0.07
			c0-0.07,0.056-0.112,0.126-0.14l1.205-0.672c0.112-0.056,0.196-0.098,0.252-0.098c0.07,0,0.098,0.056,0.112,0.168l0.098,0.854
			h0.028c0.406-0.504,1.218-1.022,1.919-1.022c0.42,0,0.854,0.084,1.19,0.308c0.42,0.28,0.771,0.98,0.771,1.331V310.909z"/>
		<path class="st6" d="M423.048,315.027c-0.504-0.308-0.714-0.672-0.714-1.135c0-0.784,0.798-1.387,1.471-1.681v-0.056
			c-0.588-0.126-0.938-0.56-0.938-0.98c0-0.672,0.771-1.148,1.261-1.331v-0.028c-0.546-0.238-1.303-0.882-1.303-2.129
			c0-0.911,0.812-2.031,2.395-2.031c1.064,0,1.625,0.645,1.765,0.812c0.378-0.266,0.854-0.546,1.317-0.546
			c0.462,0,0.686,0.308,0.658,0.588c0,0.266-0.224,0.518-0.546,0.518c-0.238,0-0.378-0.112-0.49-0.21
			c-0.084-0.056-0.182-0.126-0.294-0.126c-0.098,0-0.266,0-0.448,0.084c0.112,0.28,0.21,0.588,0.21,1.064
			c0,0.546-0.154,1.079-0.519,1.513c-0.364,0.406-1.163,0.7-1.625,0.7c-0.309,0-0.504-0.014-0.714-0.07
			c-0.28,0.112-0.743,0.392-0.743,0.784c0,0.574,0.7,0.532,1.639,0.476c1.148-0.056,1.849,0.07,2.409,0.504
			c0.602,0.448,0.672,1.009,0.686,1.345c0,0.658-0.238,1.205-0.938,1.723c-0.364,0.266-1.205,0.658-2.395,0.658
			C424.519,315.476,423.721,315.406,423.048,315.027z M427.671,313.584c0-0.826-0.63-1.457-2.031-1.358l-1.345,0.098
			c-0.434,0.112-1.121,0.588-1.121,1.345c0,0.351,0.266,0.771,0.546,0.967c0.462,0.322,0.966,0.392,1.961,0.392
			C426.2,315.027,427.741,314.663,427.671,313.584z M426.368,307.617c0-0.616-0.126-0.98-0.378-1.261
			c-0.182-0.182-0.462-0.308-0.672-0.308c-0.322,0-0.658,0.056-0.995,0.393c-0.448,0.476-0.504,1.121-0.504,1.653
			c0,0.476,0.154,0.91,0.448,1.218c0.252,0.238,0.504,0.351,0.84,0.351C426.06,309.663,426.368,308.5,426.368,307.617z"/>
		<path class="st6" d="M431.869,307.939c-0.028,0.126-0.042,0.35-0.042,0.672c0,1.373,0.869,2.409,1.989,2.409
			c0.854,0,1.457-0.49,1.695-0.952c0.028-0.056,0.084-0.084,0.126-0.07l0.182,0.098c0.042,0.014,0.07,0.056,0,0.21
			c-0.252,0.561-0.98,1.527-2.227,1.527c-0.799,0-1.681-0.238-2.199-0.995c-0.49-0.714-0.617-1.232-0.617-2.213
			c0-0.546,0.14-1.485,0.883-2.227c0.602-0.617,1.303-0.743,2.003-0.743c1.611,0,2.059,1.513,2.059,2.059
			c0,0.196-0.168,0.224-0.392,0.224H431.869z M434.096,307.519c0.266,0,0.378-0.07,0.378-0.196c0-0.322-0.168-1.247-1.079-1.247
			c-0.616,0-1.205,0.406-1.471,1.442H434.096z"/>
		<path class="st6" d="M439.975,307.491c0,0.729,0,2.844,0.014,3.278c0.014,0.238,0.07,0.434,0.364,0.434h0.63
			c0.126,0,0.154,0.042,0.154,0.126v0.238c0,0.084-0.028,0.14-0.084,0.14c-0.098,0-0.714-0.042-1.583-0.042
			c-0.896,0-1.457,0.042-1.583,0.042c-0.07,0-0.098-0.056-0.098-0.14v-0.238c0-0.098,0.028-0.126,0.182-0.126h0.672
			c0.154,0,0.294-0.098,0.308-0.35c0.014-0.434,0.014-2.843,0.014-3.656v-0.883c0-0.994-0.014-2.269-0.042-2.633
			c-0.028-0.476-0.252-0.7-0.7-0.84l-0.28-0.098c-0.07-0.028-0.084-0.042-0.084-0.07v-0.112c0-0.042,0.042-0.07,0.126-0.098
			c0.49-0.224,1.121-0.476,1.639-0.812c0.126-0.084,0.21-0.112,0.294-0.112c0.098,0,0.126,0.07,0.112,0.252
			c-0.014,0.771-0.056,3.684-0.056,4.455V307.491z"/>
		<path class="st6" d="M447.732,311.049c0.224,0,0.42-0.112,0.49-0.21c0.056-0.07,0.084-0.098,0.14-0.056l0.14,0.112
			c0.042,0.042,0.07,0.112-0.014,0.252c-0.112,0.21-0.378,0.686-1.093,0.686c-0.504,0-0.868-0.364-0.995-0.938h-0.028
			c-0.294,0.35-0.756,0.645-1.387,0.854c-0.266,0.084-0.519,0.084-0.827,0.084c-0.336,0-0.84-0.28-0.84-1.163
			c0-0.644,0.294-1.205,1.401-1.695c0.63-0.28,1.359-0.616,1.583-0.812v-0.896c-0.028-0.238-0.042-0.602-0.196-0.784
			c-0.154-0.182-0.434-0.309-0.84-0.309c-0.28,0-0.714,0.112-0.911,0.294s-0.07,0.392-0.07,0.645c0,0.49-0.168,0.798-0.743,0.798
			c-0.224,0-0.336-0.126-0.336-0.448c0-0.448,0.392-0.98,0.966-1.317c0.588-0.35,1.079-0.49,1.709-0.49
			c0.658,0,0.924,0.196,1.121,0.378c0.294,0.294,0.308,0.616,0.308,0.994v2.97C447.312,310.797,447.48,311.049,447.732,311.049z
			 M446.29,308.584c-0.504,0.378-1.877,0.658-1.877,1.821c0,0.519,0.308,0.771,0.728,0.771c0.406,0,1.149-0.49,1.149-0.869V308.584z
			"/>
		<path class="st6" d="M456.873,305.572c0-0.518-0.028-2.227-0.042-2.479c-0.042-0.812-0.266-0.84-0.911-0.84h-0.434
			c-0.084,0-0.112-0.028-0.112-0.098v-0.35c0-0.07,0.028-0.098,0.112-0.098c0.224,0,0.854,0.042,1.863,0.042
			c0.448,0,1.289-0.042,1.779-0.042c1.092,0,1.989,0.098,2.479,0.378c0.798,0.434,1.079,1.079,1.079,1.905
			c0,1.387-0.616,1.737-1.709,2.312l0.042,0.028c1.359,0.448,2.27,1.289,2.27,2.773c0,0.714-0.435,1.695-1.079,2.101
			c-0.588,0.364-1.387,0.504-2.676,0.504c-0.966,0-1.513-0.042-2.101-0.042c-0.7,0-1.527,0.042-1.793,0.042
			c-0.168,0-0.196-0.028-0.196-0.084v-0.364c0-0.07,0.028-0.098,0.126-0.098h0.672c0.434,0,0.504-0.168,0.56-0.616
			c0.042-0.322,0.07-2.171,0.07-3.32V305.572z M458.105,306.119c0.266,0.028,0.504,0.028,0.743,0.028
			c0.798,0,1.429-0.126,1.765-0.364c0.575-0.434,0.785-1.064,0.785-1.681c0-0.532-0.168-1.093-0.687-1.471
			c-0.504-0.351-1.205-0.477-1.919-0.477c-0.196,0-0.35-0.014-0.462,0.014c-0.112,0.028-0.196,0.126-0.196,0.252
			c-0.014,0.28-0.028,1.499-0.028,2.662V306.119z M458.105,309.396c0,1.289,0.309,1.863,1.471,1.863c1.176,0,2.255-0.56,2.255-2.227
			c0-1.135-0.574-1.877-1.401-2.199c-0.574-0.224-1.232-0.238-1.877-0.238h-0.448V309.396z"/>
		<path class="st6" d="M470.706,311.049c0.224,0,0.42-0.112,0.49-0.21c0.056-0.07,0.084-0.098,0.14-0.056l0.14,0.112
			c0.042,0.042,0.07,0.112-0.014,0.252c-0.112,0.21-0.378,0.686-1.093,0.686c-0.504,0-0.868-0.364-0.995-0.938h-0.028
			c-0.294,0.35-0.756,0.645-1.387,0.854c-0.266,0.084-0.519,0.084-0.827,0.084c-0.336,0-0.84-0.28-0.84-1.163
			c0-0.644,0.294-1.205,1.401-1.695c0.63-0.28,1.359-0.616,1.583-0.812v-0.896c-0.028-0.238-0.042-0.602-0.196-0.784
			c-0.154-0.182-0.434-0.309-0.84-0.309c-0.28,0-0.714,0.112-0.911,0.294s-0.07,0.392-0.07,0.645c0,0.49-0.168,0.798-0.743,0.798
			c-0.224,0-0.336-0.126-0.336-0.448c0-0.448,0.392-0.98,0.966-1.317c0.588-0.35,1.079-0.49,1.709-0.49
			c0.658,0,0.924,0.196,1.121,0.378c0.294,0.294,0.308,0.616,0.308,0.994v2.97C470.286,310.797,470.454,311.049,470.706,311.049z
			 M469.263,308.584c-0.504,0.378-1.877,0.658-1.877,1.821c0,0.519,0.308,0.771,0.728,0.771c0.406,0,1.149-0.49,1.149-0.869V308.584
			z"/>
		<path class="st6" d="M479.232,310.909c0,0.224,0.126,0.294,0.308,0.294h0.448c0.126,0,0.154,0.042,0.154,0.126v0.224
			c0,0.098-0.028,0.154-0.112,0.154c-0.098,0-0.532-0.042-1.331-0.042c-0.714,0-1.163,0.042-1.261,0.042
			c-0.084,0-0.112-0.042-0.112-0.154v-0.224c0-0.098,0.042-0.126,0.182-0.126h0.406c0.154,0,0.266-0.07,0.28-0.322
			c0.014-0.364,0.028-0.812,0.028-1.177v-1.849c0-0.56,0-0.966-0.406-1.261c-0.336-0.252-0.672-0.252-1.023-0.252
			c-0.224,0-0.714,0.098-1.134,0.546c-0.28,0.308-0.322,0.686-0.322,0.952v2.9c0,0.378,0.042,0.462,0.336,0.462h0.351
			c0.112,0,0.14,0.042,0.14,0.14v0.238c0,0.084-0.028,0.126-0.098,0.126c-0.098,0-0.477-0.042-1.219-0.042
			c-0.714,0-1.163,0.042-1.247,0.042c-0.07,0-0.098-0.042-0.098-0.126v-0.252c0-0.084,0.028-0.126,0.14-0.126h0.406
			c0.182,0,0.28-0.042,0.28-0.28v-3.278c0-0.42-0.224-0.659-0.574-0.827l-0.112-0.056c-0.098-0.042-0.112-0.084-0.112-0.126v-0.07
			c0-0.07,0.056-0.112,0.126-0.14l1.205-0.672c0.112-0.056,0.196-0.098,0.252-0.098c0.07,0,0.098,0.056,0.112,0.168l0.098,0.854
			h0.028c0.406-0.504,1.218-1.022,1.919-1.022c0.42,0,0.854,0.084,1.19,0.308c0.42,0.28,0.771,0.98,0.771,1.331V310.909z"/>
		<path class="st6" d="M482.716,315.027c-0.504-0.308-0.714-0.672-0.714-1.135c0-0.784,0.798-1.387,1.471-1.681v-0.056
			c-0.588-0.126-0.938-0.56-0.938-0.98c0-0.672,0.771-1.148,1.261-1.331v-0.028c-0.546-0.238-1.303-0.882-1.303-2.129
			c0-0.911,0.812-2.031,2.395-2.031c1.065,0,1.625,0.645,1.765,0.812c0.378-0.266,0.854-0.546,1.316-0.546
			c0.462,0,0.687,0.308,0.659,0.588c0,0.266-0.224,0.518-0.546,0.518c-0.238,0-0.378-0.112-0.49-0.21
			c-0.084-0.056-0.182-0.126-0.294-0.126c-0.098,0-0.267,0-0.448,0.084c0.112,0.28,0.21,0.588,0.21,1.064
			c0,0.546-0.154,1.079-0.519,1.513c-0.364,0.406-1.163,0.7-1.625,0.7c-0.308,0-0.504-0.014-0.714-0.07
			c-0.28,0.112-0.743,0.392-0.743,0.784c0,0.574,0.701,0.532,1.639,0.476c1.148-0.056,1.849,0.07,2.409,0.504
			c0.602,0.448,0.672,1.009,0.687,1.345c0,0.658-0.238,1.205-0.939,1.723c-0.364,0.266-1.205,0.658-2.395,0.658
			C484.187,315.476,483.388,315.406,482.716,315.027z M487.338,313.584c0-0.826-0.63-1.457-2.031-1.358l-1.345,0.098
			c-0.434,0.112-1.121,0.588-1.121,1.345c0,0.351,0.266,0.771,0.546,0.967c0.462,0.322,0.966,0.392,1.961,0.392
			C485.867,315.027,487.408,314.663,487.338,313.584z M486.036,307.617c0-0.616-0.126-0.98-0.378-1.261
			c-0.182-0.182-0.462-0.308-0.672-0.308c-0.322,0-0.658,0.056-0.995,0.393c-0.448,0.476-0.504,1.121-0.504,1.653
			c0,0.476,0.154,0.91,0.448,1.218c0.252,0.238,0.504,0.351,0.841,0.351C485.727,309.663,486.036,308.5,486.036,307.617z"/>
		<path class="st6" d="M500.078,311.049c0.224,0,0.42-0.112,0.49-0.21c0.056-0.07,0.084-0.098,0.14-0.056l0.14,0.112
			c0.042,0.042,0.07,0.112-0.014,0.252c-0.112,0.21-0.378,0.686-1.093,0.686c-0.504,0-0.869-0.364-0.995-0.938h-0.028
			c-0.294,0.35-0.756,0.645-1.387,0.854c-0.266,0.084-0.519,0.084-0.827,0.084c-0.336,0-0.84-0.28-0.84-1.163
			c0-0.644,0.294-1.205,1.401-1.695c0.63-0.28,1.358-0.616,1.583-0.812v-0.896c-0.028-0.238-0.042-0.602-0.196-0.784
			c-0.154-0.182-0.434-0.309-0.84-0.309c-0.28,0-0.714,0.112-0.911,0.294s-0.07,0.392-0.07,0.645c0,0.49-0.168,0.798-0.742,0.798
			c-0.224,0-0.336-0.126-0.336-0.448c0-0.448,0.392-0.98,0.966-1.317c0.588-0.35,1.079-0.49,1.709-0.49
			c0.658,0,0.924,0.196,1.121,0.378c0.294,0.294,0.308,0.616,0.308,0.994v2.97C499.657,310.797,499.825,311.049,500.078,311.049z
			 M498.635,308.584c-0.504,0.378-1.877,0.658-1.877,1.821c0,0.519,0.308,0.771,0.728,0.771c0.406,0,1.149-0.49,1.149-0.869V308.584
			z"/>
		<path class="st6" d="M508.604,310.909c0,0.224,0.126,0.294,0.308,0.294h0.448c0.126,0,0.154,0.042,0.154,0.126v0.224
			c0,0.098-0.028,0.154-0.112,0.154c-0.098,0-0.532-0.042-1.331-0.042c-0.714,0-1.163,0.042-1.261,0.042
			c-0.084,0-0.112-0.042-0.112-0.154v-0.224c0-0.098,0.042-0.126,0.182-0.126h0.406c0.154,0,0.266-0.07,0.28-0.322
			c0.014-0.364,0.028-0.812,0.028-1.177v-1.849c0-0.56,0-0.966-0.406-1.261c-0.336-0.252-0.672-0.252-1.023-0.252
			c-0.224,0-0.714,0.098-1.134,0.546c-0.28,0.308-0.322,0.686-0.322,0.952v2.9c0,0.378,0.042,0.462,0.336,0.462h0.351
			c0.112,0,0.14,0.042,0.14,0.14v0.238c0,0.084-0.028,0.126-0.098,0.126c-0.098,0-0.477-0.042-1.219-0.042
			c-0.714,0-1.163,0.042-1.247,0.042c-0.07,0-0.098-0.042-0.098-0.126v-0.252c0-0.084,0.028-0.126,0.14-0.126h0.406
			c0.182,0,0.28-0.042,0.28-0.28v-3.278c0-0.42-0.224-0.659-0.574-0.827l-0.112-0.056c-0.098-0.042-0.112-0.084-0.112-0.126v-0.07
			c0-0.07,0.056-0.112,0.126-0.14l1.205-0.672c0.112-0.056,0.196-0.098,0.252-0.098c0.07,0,0.098,0.056,0.112,0.168l0.098,0.854
			h0.028c0.406-0.504,1.218-1.022,1.919-1.022c0.42,0,0.854,0.084,1.19,0.308c0.42,0.28,0.771,0.98,0.771,1.331V310.909z"/>
		<path class="st6" d="M516.262,303.135c0-0.532-0.099-0.7-0.883-0.826c-0.084-0.014-0.099-0.042-0.099-0.098v-0.238
			c0-0.056,0.028-0.084,0.112-0.098c0.547-0.112,1.274-0.238,1.541-0.294c0.126-0.014,0.225-0.042,0.322-0.042
			c0.07,0,0.084,0.098,0.07,0.252c-0.042,0.701-0.057,2.731-0.057,4.511v3.096c0,0.518,0.028,1.134,0.141,1.274
			c0.126,0.14,0.42,0.224,0.616,0.238s0.252,0.028,0.28,0.098l0.027,0.112c0.015,0.084-0.014,0.126-0.098,0.154l-1.583,0.532
			c-0.084,0.028-0.154-0.014-0.182-0.112l-0.183-0.616c-0.448,0.448-1.345,0.756-2.059,0.756c-0.463,0-0.995,0.028-1.653-0.644
			c-0.714-0.701-0.883-1.331-0.883-2.27c0-0.868,0.322-1.723,0.981-2.381c0.546-0.588,1.302-0.882,2.087-0.882
			c0.574,0,1.078,0.084,1.499,0.21V303.135z M516.262,307.575c0-0.196,0-0.462-0.127-0.686c-0.195-0.378-0.644-0.757-1.471-0.757
			c-0.434,0-0.91,0.126-1.274,0.504c-0.546,0.588-0.644,1.331-0.644,1.863c0,1.583,1.092,2.731,1.905,2.731
			c0.784,0,1.387-0.406,1.526-0.771c0.07-0.21,0.085-0.322,0.085-0.476V307.575z"/>
		<path class="st6" d="M526.787,305.796c0-0.336-0.042-2.857-0.056-3.068c-0.028-0.336-0.168-0.476-0.7-0.476h-0.812
			c-0.07,0-0.112-0.028-0.112-0.084v-0.378c0-0.056,0.042-0.084,0.099-0.084c0.168,0,0.882,0.042,2.185,0.042
			c1.247,0,1.695-0.042,1.892-0.042c0.069,0,0.098,0.042,0.098,0.098v0.35c0,0.07-0.042,0.098-0.112,0.098h-0.658
			c-0.28,0-0.49,0.112-0.49,0.392c0,0.14-0.042,3.236-0.042,3.404v1.079c0,0.14,0.042,3.376,0.042,3.53
			c0,0.435,0.21,0.504,0.658,0.504h0.574c0.07,0,0.112,0.028,0.112,0.098v0.364c0,0.056-0.042,0.084-0.126,0.084
			c-0.168,0-0.729-0.042-1.947-0.042c-1.331,0-1.933,0.042-2.087,0.042c-0.07,0-0.112-0.028-0.112-0.084v-0.378
			c0-0.056,0.042-0.084,0.112-0.084h0.784c0.28,0,0.574-0.042,0.631-0.406c0.027-0.21,0.069-3.236,0.069-3.978V305.796z"/>
		<path class="st6" d="M541.461,303.135c0-0.532-0.098-0.7-0.883-0.826c-0.084-0.014-0.098-0.042-0.098-0.098v-0.238
			c0-0.056,0.028-0.084,0.112-0.098c0.546-0.112,1.274-0.238,1.541-0.294c0.126-0.014,0.224-0.042,0.321-0.042
			c0.07,0,0.084,0.098,0.07,0.252c-0.042,0.701-0.056,2.731-0.056,4.511v3.096c0,0.518,0.027,1.134,0.14,1.274
			c0.126,0.14,0.421,0.224,0.616,0.238c0.196,0.014,0.253,0.028,0.28,0.098l0.028,0.112c0.014,0.084-0.014,0.126-0.099,0.154
			l-1.582,0.532c-0.084,0.028-0.154-0.014-0.183-0.112l-0.182-0.616c-0.448,0.448-1.345,0.756-2.06,0.756
			c-0.462,0-0.994,0.028-1.652-0.644c-0.715-0.701-0.883-1.331-0.883-2.27c0-0.868,0.322-1.723,0.98-2.381
			c0.546-0.588,1.303-0.882,2.087-0.882c0.574,0,1.079,0.084,1.499,0.21V303.135z M541.461,307.575c0-0.196,0-0.462-0.126-0.686
			c-0.196-0.378-0.645-0.757-1.471-0.757c-0.435,0-0.911,0.126-1.274,0.504c-0.547,0.588-0.645,1.331-0.645,1.863
			c0,1.583,1.093,2.731,1.904,2.731c0.785,0,1.388-0.406,1.527-0.771c0.07-0.21,0.084-0.322,0.084-0.476V307.575z"/>
		<path class="st6" d="M546.331,310.867c-0.645-0.771-0.771-1.289-0.771-2.283c0-0.714,0.378-1.611,1.204-2.255
			c0.729-0.56,1.415-0.672,1.877-0.672c0.771,0,1.541,0.392,1.962,0.812c0.63,0.645,0.952,1.373,0.952,2.283
			c0,1.527-1.373,3.082-3.096,3.082C547.787,311.833,546.919,311.567,546.331,310.867z M550.379,308.612
			c0-1.555-1.135-2.535-1.849-2.535c-0.379,0-0.743,0.084-1.079,0.448c-0.546,0.56-0.742,1.134-0.742,2.199
			c0,0.784,0.084,1.316,0.532,1.961c0.322,0.462,0.729,0.729,1.387,0.729C549.692,311.414,550.379,310.111,550.379,308.612z"/>
		<path class="st6" d="M559.938,308.276c0,0.756,0.336,1.611,0.715,2.129c0.462,0.603,1.05,0.714,1.526,0.714
			c0.7,0,1.064-0.154,1.541-0.602c0.028-0.028,0.07-0.042,0.112,0l0.14,0.14c0.056,0.056,0.07,0.098,0,0.182
			c-0.406,0.462-1.303,0.995-2.255,0.995c-0.743,0-1.527-0.168-2.172-0.98c-0.518-0.687-0.63-1.274-0.63-1.905
			c0-1.639,1.148-3.292,2.998-3.292c1.456,0,1.904,0.84,1.904,1.135c-0.014,0.322-0.224,0.49-0.518,0.49
			c-0.322,0-0.561-0.182-0.771-0.561c-0.309-0.574-0.603-0.616-0.938-0.616C560.793,306.104,559.938,306.833,559.938,308.276z"/>
		<path class="st6" d="M566.91,307.939c0-0.714-0.112-0.854-0.504-1.064l-0.267-0.14c-0.084-0.028-0.112-0.042-0.112-0.098v-0.084
			c0-0.056,0.028-0.084,0.112-0.126l1.387-0.714c0.084-0.042,0.141-0.056,0.196-0.056c0.084,0,0.098,0.084,0.098,0.168l0.07,0.995
			h0.057c0.42-0.645,1.078-1.219,1.681-1.219c0.476,0,0.714,0.294,0.714,0.617c0,0.406-0.336,0.686-0.588,0.686
			c-0.154,0-0.294-0.056-0.406-0.112c-0.112-0.07-0.28-0.112-0.462-0.112c-0.225,0-0.589,0.14-0.827,0.588
			c-0.084,0.154-0.14,0.406-0.14,0.448v2.914c0,0.434,0.098,0.574,0.392,0.574h0.659c0.084,0,0.098,0.042,0.098,0.126v0.252
			c0,0.084-0.014,0.126-0.07,0.126c-0.084,0-0.729-0.042-1.484-0.042c-0.868,0-1.457,0.042-1.541,0.042
			c-0.056,0-0.084-0.028-0.084-0.14v-0.238c0-0.098,0.028-0.126,0.154-0.126h0.546c0.21,0,0.309-0.084,0.309-0.266
			c0.014-0.462,0.014-0.952,0.014-1.681V307.939z"/>
		<path class="st6" d="M573.196,307.939c-0.027,0.126-0.042,0.35-0.042,0.672c0,1.373,0.869,2.409,1.989,2.409
			c0.854,0,1.457-0.49,1.695-0.952c0.027-0.056,0.084-0.084,0.126-0.07l0.182,0.098c0.042,0.014,0.07,0.056,0,0.21
			c-0.252,0.561-0.98,1.527-2.227,1.527c-0.799,0-1.682-0.238-2.199-0.995c-0.49-0.714-0.617-1.232-0.617-2.213
			c0-0.546,0.141-1.485,0.883-2.227c0.603-0.617,1.303-0.743,2.003-0.743c1.611,0,2.06,1.513,2.06,2.059
			c0,0.196-0.168,0.224-0.393,0.224H573.196z M575.424,307.519c0.266,0,0.378-0.07,0.378-0.196c0-0.322-0.168-1.247-1.078-1.247
			c-0.616,0-1.205,0.406-1.471,1.442H575.424z"/>
		<path class="st6" d="M584.076,311.049c0.225,0,0.42-0.112,0.49-0.21c0.056-0.07,0.084-0.098,0.141-0.056l0.14,0.112
			c0.042,0.042,0.07,0.112-0.014,0.252c-0.112,0.21-0.379,0.686-1.093,0.686c-0.505,0-0.869-0.364-0.995-0.938h-0.027
			c-0.295,0.35-0.757,0.645-1.387,0.854c-0.267,0.084-0.519,0.084-0.827,0.084c-0.336,0-0.84-0.28-0.84-1.163
			c0-0.644,0.294-1.205,1.4-1.695c0.631-0.28,1.358-0.616,1.583-0.812v-0.896c-0.028-0.238-0.042-0.602-0.196-0.784
			s-0.434-0.309-0.84-0.309c-0.28,0-0.715,0.112-0.911,0.294s-0.07,0.392-0.07,0.645c0,0.49-0.168,0.798-0.742,0.798
			c-0.224,0-0.336-0.126-0.336-0.448c0-0.448,0.393-0.98,0.967-1.317c0.588-0.35,1.078-0.49,1.709-0.49
			c0.658,0,0.924,0.196,1.12,0.378c0.294,0.294,0.309,0.616,0.309,0.994v2.97C583.656,310.797,583.824,311.049,584.076,311.049z
			 M582.634,308.584c-0.505,0.378-1.877,0.658-1.877,1.821c0,0.519,0.308,0.771,0.728,0.771c0.406,0,1.149-0.49,1.149-0.869V308.584
			z"/>
		<path class="st6" d="M588.694,309.915c0,1.051,0.477,1.233,0.729,1.233c0.322,0,0.729-0.056,0.925-0.182
			c0.07-0.042,0.126-0.028,0.168,0.028l0.07,0.126c0.042,0.056,0.014,0.112-0.028,0.154c-0.14,0.14-0.714,0.56-1.555,0.56
			c-0.687,0-1.358-0.658-1.358-1.19c0-0.574,0.042-1.807,0.042-2.003v-0.309c0-0.252,0.014-1.205,0.027-1.793h-0.854
			c-0.126,0-0.21-0.056-0.21-0.168c0-0.112,0.084-0.154,0.252-0.252c0.337-0.196,1.415-1.275,1.598-1.751
			c0.042-0.112,0.111-0.14,0.195-0.14c0.112,0,0.141,0.098,0.141,0.21l-0.07,1.373h1.947c0.084,0,0.126,0.07,0.098,0.126l-0.14,0.49
			c-0.015,0.07-0.042,0.112-0.126,0.112h-1.808c-0.027,0.645-0.042,1.331-0.042,1.975V309.915z"/>
		<path class="st6" d="M593.622,307.589c0-0.476-0.084-0.729-0.784-0.84c-0.099-0.014-0.127-0.042-0.127-0.098v-0.126
			c0-0.042,0.028-0.07,0.099-0.098c0.448-0.168,0.98-0.392,1.513-0.687c0.112-0.056,0.182-0.084,0.267-0.084
			c0.069,0,0.084,0.07,0.069,0.168c-0.027,0.238-0.027,1.121-0.027,2.283v1.527c0,0.546,0,1.051,0.014,1.205
			c0.028,0.266,0.07,0.364,0.224,0.364h0.645c0.112,0,0.141,0.042,0.141,0.126v0.238c0,0.098-0.028,0.14-0.126,0.14
			c-0.112,0-0.757-0.042-1.345-0.042c-0.812,0-1.359,0.042-1.514,0.042c-0.069,0-0.111-0.028-0.111-0.112v-0.28
			c0-0.084,0.042-0.112,0.14-0.112h0.687c0.154,0,0.21-0.056,0.224-0.28c0.015-0.42,0.015-0.854,0.015-1.275V307.589z
			 M592.964,303.289c0-0.364,0.308-0.785,0.882-0.785c0.519,0,0.757,0.42,0.757,0.743c0,0.378-0.252,0.826-0.841,0.826
			C593.439,304.073,592.964,303.751,592.964,303.289z"/>
		<path class="st6" d="M600.567,310.377h0.042c0.224-0.546,1.204-2.956,1.345-3.502c0.098-0.378,0-0.603-0.253-0.603h-0.279
			c-0.042,0-0.057-0.07-0.057-0.14v-0.252c0-0.084,0.028-0.112,0.084-0.112c0.196,0,0.505,0.042,1.121,0.042
			c0.546,0,0.882-0.042,1.009-0.042c0.111,0,0.126,0.014,0.126,0.126v0.238c0,0.098,0,0.14-0.07,0.14h-0.267
			c-0.168,0-0.308,0.028-0.434,0.154c-0.21,0.196-0.911,1.737-1.121,2.255c-0.168,0.42-1.204,2.773-1.261,2.871
			c-0.111,0.196-0.182,0.322-0.336,0.322c-0.14,0-0.224-0.126-0.294-0.294l-1.093-2.844c-0.042-0.112-0.616-1.723-0.715-1.947
			c-0.182-0.406-0.321-0.519-0.574-0.519h-0.279c-0.07,0-0.085-0.056-0.085-0.14v-0.252c0-0.098,0.028-0.112,0.154-0.112
			c0.154,0,0.393,0.042,1.177,0.042c0.742,0,1.106-0.042,1.261-0.042c0.112,0,0.14,0.028,0.14,0.112v0.252
			c0,0.084-0.014,0.14-0.098,0.14h-0.28c-0.14,0-0.252,0.084-0.252,0.266c0,0.252,0.364,1.429,0.448,1.667
			C599.811,308.472,600.413,310.083,600.567,310.377z"/>
		<path class="st6" d="M606.32,307.939c-0.028,0.126-0.042,0.35-0.042,0.672c0,1.373,0.868,2.409,1.989,2.409
			c0.854,0,1.456-0.49,1.694-0.952c0.028-0.056,0.084-0.084,0.126-0.07l0.183,0.098c0.042,0.014,0.069,0.056,0,0.21
			c-0.252,0.561-0.98,1.527-2.228,1.527c-0.799,0-1.681-0.238-2.199-0.995c-0.49-0.714-0.616-1.232-0.616-2.213
			c0-0.546,0.14-1.485,0.883-2.227c0.602-0.617,1.303-0.743,2.003-0.743c1.61,0,2.059,1.513,2.059,2.059
			c0,0.196-0.168,0.224-0.392,0.224H606.32z M608.547,307.519c0.267,0,0.379-0.07,0.379-0.196c0-0.322-0.168-1.247-1.079-1.247
			c-0.616,0-1.204,0.406-1.471,1.442H608.547z"/>
		<path class="st6" d="M619.396,309.915c0,1.051,0.477,1.233,0.729,1.233c0.322,0,0.729-0.056,0.924-0.182
			c0.07-0.042,0.126-0.028,0.169,0.028l0.069,0.126c0.042,0.056,0.015,0.112-0.027,0.154c-0.141,0.14-0.715,0.56-1.556,0.56
			c-0.686,0-1.358-0.658-1.358-1.19c0-0.574,0.042-1.807,0.042-2.003v-0.309c0-0.252,0.014-1.205,0.028-1.793h-0.854
			c-0.126,0-0.21-0.056-0.21-0.168c0-0.112,0.084-0.154,0.252-0.252c0.336-0.196,1.415-1.275,1.597-1.751
			c0.042-0.112,0.112-0.14,0.196-0.14c0.112,0,0.14,0.098,0.14,0.21l-0.069,1.373h1.946c0.084,0,0.126,0.07,0.099,0.126l-0.141,0.49
			c-0.014,0.07-0.042,0.112-0.126,0.112h-1.807c-0.028,0.645-0.042,1.331-0.042,1.975V309.915z"/>
		<path class="st6" d="M624.268,304.031c0-0.854-0.168-1.008-0.673-1.176l-0.237-0.084c-0.084-0.028-0.099-0.042-0.099-0.084v-0.126
			c0-0.056,0.042-0.07,0.168-0.14l1.457-0.771c0.112-0.056,0.21-0.112,0.322-0.112c0.084,0,0.14,0.112,0.112,0.35
			c-0.028,0.238-0.042,3.082-0.042,3.782v0.896h0.069c0.49-0.588,1.303-0.911,1.919-0.911c0.589,0,0.995,0.182,1.388,0.561
			c0.63,0.588,0.602,1.302,0.602,2.059v0.798c0,0.784,0.028,1.653,0.028,1.919c0,0.168,0.224,0.21,0.519,0.21h0.238
			c0.111,0,0.153,0.028,0.153,0.126v0.21c0,0.112-0.027,0.168-0.111,0.168c-0.099,0-0.547-0.042-1.345-0.042
			c-0.687,0-1.191,0.042-1.317,0.042c-0.098,0-0.126-0.042-0.126-0.154v-0.238c0-0.07,0.015-0.112,0.099-0.112h0.321
			c0.238,0,0.519-0.028,0.533-0.266c0.014-0.196,0-0.938,0-1.387v-1.135c0-0.784-0.057-1.345-0.463-1.723
			c-0.28-0.266-0.574-0.392-0.924-0.392c-0.406,0-0.911,0.14-1.303,0.588c-0.127,0.154-0.28,0.434-0.28,0.686v3.054
			c0,0.448,0.042,0.574,0.308,0.574h0.421c0.098,0,0.153,0.028,0.153,0.112v0.238c0,0.098-0.027,0.154-0.111,0.154
			c-0.112,0-0.687-0.042-1.331-0.042c-0.7,0-1.232,0.042-1.358,0.042c-0.057,0-0.099-0.042-0.099-0.14v-0.252
			c0-0.098,0.057-0.112,0.21-0.112h0.295c0.224,0,0.434-0.056,0.462-0.224c0.042-0.266,0.042-1.807,0.042-2.717V304.031z"/>
		<path class="st6" d="M633.27,307.589c0-0.476-0.084-0.729-0.784-0.84c-0.099-0.014-0.127-0.042-0.127-0.098v-0.126
			c0-0.042,0.028-0.07,0.099-0.098c0.448-0.168,0.98-0.392,1.513-0.687c0.112-0.056,0.182-0.084,0.267-0.084
			c0.069,0,0.084,0.07,0.069,0.168c-0.027,0.238-0.027,1.121-0.027,2.283v1.527c0,0.546,0,1.051,0.014,1.205
			c0.028,0.266,0.07,0.364,0.224,0.364h0.645c0.112,0,0.141,0.042,0.141,0.126v0.238c0,0.098-0.028,0.14-0.126,0.14
			c-0.112,0-0.757-0.042-1.345-0.042c-0.812,0-1.359,0.042-1.514,0.042c-0.069,0-0.111-0.028-0.111-0.112v-0.28
			c0-0.084,0.042-0.112,0.14-0.112h0.687c0.154,0,0.21-0.056,0.224-0.28c0.015-0.42,0.015-0.854,0.015-1.275V307.589z
			 M632.611,303.289c0-0.364,0.308-0.785,0.882-0.785c0.519,0,0.757,0.42,0.757,0.743c0,0.378-0.252,0.826-0.841,0.826
			C633.087,304.073,632.611,303.751,632.611,303.289z"/>
		<path class="st6" d="M643.254,310.909c0,0.224,0.126,0.294,0.309,0.294h0.448c0.126,0,0.154,0.042,0.154,0.126v0.224
			c0,0.098-0.028,0.154-0.112,0.154c-0.099,0-0.532-0.042-1.331-0.042c-0.714,0-1.162,0.042-1.261,0.042
			c-0.084,0-0.112-0.042-0.112-0.154v-0.224c0-0.098,0.043-0.126,0.183-0.126h0.406c0.154,0,0.266-0.07,0.28-0.322
			c0.014-0.364,0.027-0.812,0.027-1.177v-1.849c0-0.56,0-0.966-0.405-1.261c-0.337-0.252-0.673-0.252-1.023-0.252
			c-0.224,0-0.714,0.098-1.134,0.546c-0.28,0.308-0.322,0.686-0.322,0.952v2.9c0,0.378,0.042,0.462,0.336,0.462h0.351
			c0.111,0,0.14,0.042,0.14,0.14v0.238c0,0.084-0.028,0.126-0.098,0.126c-0.099,0-0.477-0.042-1.219-0.042
			c-0.715,0-1.163,0.042-1.247,0.042c-0.07,0-0.098-0.042-0.098-0.126v-0.252c0-0.084,0.027-0.126,0.14-0.126h0.406
			c0.183,0,0.28-0.042,0.28-0.28v-3.278c0-0.42-0.225-0.659-0.574-0.827l-0.112-0.056c-0.098-0.042-0.112-0.084-0.112-0.126v-0.07
			c0-0.07,0.057-0.112,0.126-0.14l1.205-0.672c0.112-0.056,0.196-0.098,0.252-0.098c0.07,0,0.099,0.056,0.112,0.168l0.098,0.854
			h0.028c0.406-0.504,1.219-1.022,1.919-1.022c0.42,0,0.854,0.084,1.19,0.308c0.421,0.28,0.771,0.98,0.771,1.331V310.909z"/>
		<path class="st6" d="M646.737,315.027c-0.505-0.308-0.715-0.672-0.715-1.135c0-0.784,0.799-1.387,1.471-1.681v-0.056
			c-0.588-0.126-0.938-0.56-0.938-0.98c0-0.672,0.771-1.148,1.261-1.331v-0.028c-0.546-0.238-1.303-0.882-1.303-2.129
			c0-0.911,0.812-2.031,2.396-2.031c1.064,0,1.625,0.645,1.765,0.812c0.378-0.266,0.854-0.546,1.316-0.546
			c0.463,0,0.687,0.308,0.659,0.588c0,0.266-0.225,0.518-0.547,0.518c-0.238,0-0.378-0.112-0.49-0.21
			c-0.084-0.056-0.182-0.126-0.294-0.126c-0.098,0-0.267,0-0.448,0.084c0.112,0.28,0.21,0.588,0.21,1.064
			c0,0.546-0.154,1.079-0.519,1.513c-0.364,0.406-1.162,0.7-1.624,0.7c-0.309,0-0.505-0.014-0.715-0.07
			c-0.28,0.112-0.742,0.392-0.742,0.784c0,0.574,0.7,0.532,1.639,0.476c1.148-0.056,1.849,0.07,2.409,0.504
			c0.603,0.448,0.673,1.009,0.687,1.345c0,0.658-0.238,1.205-0.938,1.723c-0.364,0.266-1.205,0.658-2.396,0.658
			C648.208,315.476,647.409,315.406,646.737,315.027z M651.359,313.584c0-0.826-0.63-1.457-2.031-1.358l-1.345,0.098
			c-0.434,0.112-1.12,0.588-1.12,1.345c0,0.351,0.266,0.771,0.546,0.967c0.462,0.322,0.967,0.392,1.961,0.392
			C649.889,315.027,651.43,314.663,651.359,313.584z M650.057,307.617c0-0.616-0.126-0.98-0.378-1.261
			c-0.183-0.182-0.463-0.308-0.673-0.308c-0.322,0-0.658,0.056-0.994,0.393c-0.448,0.476-0.505,1.121-0.505,1.653
			c0,0.476,0.154,0.91,0.448,1.218c0.253,0.238,0.505,0.351,0.841,0.351C649.748,309.663,650.057,308.5,650.057,307.617z"/>
		<path class="st6" d="M654.927,311.427c-0.07-0.042-0.07-0.126-0.084-0.196l-0.238-1.331c-0.014-0.07,0.028-0.098,0.084-0.112
			l0.183-0.042c0.056-0.014,0.098,0.014,0.126,0.084l0.35,0.687c0.28,0.518,0.477,0.868,1.219,0.868c0.49,0,1.106-0.294,1.106-0.952
			c0-0.63-0.308-0.995-1.358-1.289c-0.826-0.238-1.652-0.672-1.652-1.779c0-0.966,0.91-1.709,1.961-1.709
			c0.672,0,1.036,0.168,1.288,0.294c0.21,0.098,0.238,0.168,0.252,0.252l0.211,0.98c0,0.056-0.028,0.098-0.099,0.126l-0.168,0.056
			c-0.056,0.014-0.084,0-0.126-0.07l-0.477-0.645c-0.168-0.266-0.434-0.546-0.98-0.546c-0.532,0-1.078,0.322-1.078,0.924
			c0,0.812,0.658,0.967,1.345,1.163c1.022,0.294,1.667,0.714,1.681,1.793c-0.014,1.134-0.938,1.849-2.129,1.849
			C655.655,311.833,655.095,311.553,654.927,311.427z"/>
		<path class="st6" d="M661.353,311.007c0-0.238,0.168-0.785,0.868-0.785c0.406,0,0.785,0.322,0.785,0.84
			c0,0.462-0.351,0.771-0.785,0.771C661.913,311.833,661.353,311.666,661.353,311.007z"/>
	</g>
</g>
<g id="face_x5F_shadow">
	<g>
		
			<image style="overflow:visible;" width="218" height="218" xlink:href="EC78E5CC27096659.png"  transform="matrix(1 0 0 1 416 365)">
		</image>
	</g>
</g>
<g id="face_1_">
	<g>
		<g>
			<path class="st6" d="M594.439,467.9c0,39.424-31.961,71.387-71.387,71.387c-39.422,0-71.383-31.963-71.383-71.387
				c0-39.426,31.961-71.385,71.383-71.385C562.479,396.516,594.439,428.475,594.439,467.9z"/>
		</g>
		
			<image style="overflow:visible;" width="1250" height="1237" xlink:href="EC78E5CC2709665F.png"  transform="matrix(0.1162 0 0 0.1162 453.7051 396.0078)">
		</image>
	</g>
</g>
<g id="sparkles" class="st8">
	<g class="st7">
		
			<image style="overflow:visible;opacity:0.75;" width="28" height="58" xlink:href="EC78E5CC27096658.png"  transform="matrix(1 0 0 1 470.8726 130.7124)">
		</image>
		<g>
			<path class="st0" d="M479.877,128.61c-0.135,0.136-0.271,0.276-0.409,0.408c-0.839,10.107-5.123,18.761-11.196,23.645
				c6.466,5.564,10.772,15.475,10.772,26.786c0,0.057-0.004,0.114-0.004,0.172c0,0.065,0.004,0.129,0.004,0.195
				c0,0.508-0.013,1.015-0.029,1.519h0.035c-0.001-0.137-0.006-0.272-0.006-0.408c0-12.646,5.381-23.549,13.148-28.575v-0.245
				C485.704,147.59,480.99,138.917,479.877,128.61z"/>
		</g>
	</g>
	<g class="st7">
		
			<image style="overflow:visible;opacity:0.75;" width="29" height="58" xlink:href="EC78E5CC27096656.png"  transform="matrix(1 0 0 1 261.0068 122.0068)">
		</image>
		<g>
			<path class="st0" d="M270.663,120.042c-0.138,0.136-0.271,0.276-0.41,0.408c-0.84,10.107-5.124,18.76-11.197,23.645
				c6.466,5.563,10.771,15.475,10.771,26.785c0,0.057-0.002,0.114-0.002,0.173c0,0.065,0.002,0.129,0.002,0.195
				c0,0.508-0.01,1.015-0.027,1.518h0.032c0-0.137-0.005-0.272-0.005-0.408c0-12.646,5.382-23.548,13.149-28.574v-0.245
				C276.487,139.021,271.771,130.348,270.663,120.042z"/>
		</g>
	</g>
	<g class="st7">
		
			<image style="overflow:visible;opacity:0.75;" width="28" height="58" xlink:href="EC78E5CC27096657.png"  transform="matrix(1 0 0 1 592.873 95.7124)">
		</image>
		<g>
			<path class="st0" d="M601.838,93.679c-0.135,0.136-0.268,0.276-0.408,0.408c-0.84,10.108-5.123,18.761-11.197,23.645
				c6.467,5.563,10.771,15.475,10.771,26.785c0,0.058,0,0.114,0,0.173c0,0.065,0,0.129,0,0.195c0,0.509-0.012,1.015-0.027,1.519
				h0.033c0-0.137-0.006-0.272-0.006-0.408c0-12.646,5.383-23.549,13.148-28.574v-0.245
				C607.664,112.659,602.949,103.986,601.838,93.679z"/>
		</g>
	</g>
	<g class="st7">
		
			<image style="overflow:visible;opacity:0.75;" width="29" height="58" xlink:href="EC78E5CC27096667.png"  transform="matrix(1 0 0 1 249.0068 406.0068)">
		</image>
		<g>
			<path class="st0" d="M258.7,404.02c-0.136,0.135-0.271,0.275-0.407,0.406c-0.841,10.107-5.125,18.76-11.198,23.645
				c6.466,5.562,10.771,15.477,10.771,26.787c0,0.055-0.003,0.113-0.003,0.17c0,0.064,0.003,0.129,0.003,0.197
				c0,0.506-0.012,1.014-0.028,1.516h0.035c-0.001-0.135-0.007-0.27-0.007-0.406c0-12.646,5.382-23.549,13.149-28.574v-0.244
				C264.528,422.998,259.812,414.324,258.7,404.02z"/>
		</g>
	</g>
	<g class="st7">
		
			<image style="overflow:visible;opacity:0.75;" width="29" height="57" xlink:href="EC78E5CC27096669.png"  transform="matrix(1 0 0 1 507.8726 620.7129)">
		</image>
		<g>
			<path class="st0" d="M517.748,618.225c-0.135,0.135-0.27,0.275-0.408,0.408c-0.84,10.107-5.124,18.76-11.197,23.645
				c6.465,5.562,10.769,15.477,10.769,26.783c0,0.061,0,0.115,0,0.176c0,0.062,0,0.127,0,0.193c0,0.51-0.01,1.016-0.025,1.518h0.033
				c0-0.137-0.008-0.27-0.008-0.408c0-12.645,5.385-23.547,13.15-28.574v-0.244C523.574,637.203,518.859,628.531,517.748,618.225z"
				/>
		</g>
	</g>
	<g class="st7">
		
			<image style="overflow:visible;opacity:0.75;" width="28" height="58" xlink:href="EC78E5CC2709666B.png"  transform="matrix(1 0 0 1 670.873 580.7129)">
		</image>
		<g>
			<path class="st0" d="M679.885,578.861c-0.137,0.137-0.271,0.277-0.41,0.406c-0.838,10.107-5.125,18.764-11.197,23.648
				c6.465,5.562,10.773,15.473,10.773,26.783c0,0.059-0.004,0.113-0.004,0.172c0,0.066,0.004,0.129,0.004,0.195
				c0,0.508-0.012,1.014-0.031,1.518h0.035c-0.002-0.135-0.004-0.271-0.004-0.406c0-12.646,5.381-23.549,13.146-28.576v-0.242
				C685.711,597.842,680.994,589.166,679.885,578.861z"/>
		</g>
	</g>
	<g class="st7">
		
			<image style="overflow:visible;opacity:0.75;" width="29" height="58" xlink:href="2D793681A45BCB38.png"  transform="matrix(1 0 0 1 786.873 360.7124)">
		</image>
		<g>
			<path class="st0" d="M796.279,358.555c-0.135,0.137-0.27,0.275-0.408,0.41c-0.838,10.107-5.123,18.762-11.195,23.643
				c6.463,5.566,10.771,15.476,10.771,26.785c0,0.059-0.004,0.115-0.004,0.176c0,0.064,0.004,0.127,0.004,0.191
				c0,0.51-0.014,1.018-0.029,1.521h0.033c0-0.139-0.004-0.273-0.004-0.41c0-12.646,5.381-23.549,13.146-28.574v-0.246
				C802.105,377.538,797.391,368.864,796.279,358.555z"/>
		</g>
	</g>
	<g class="st7">
		
			<image style="overflow:visible;opacity:0.75;" width="29" height="58" xlink:href="2D793681A45BCB3F.png"  transform="matrix(1 0 0 1 693.873 186.7124)">
		</image>
		<g>
			<path class="st0" d="M703.803,184.411c-0.135,0.136-0.271,0.276-0.41,0.409c-0.838,10.108-5.123,18.76-11.195,23.645
				c6.465,5.563,10.771,15.475,10.771,26.785c0,0.057-0.004,0.114-0.004,0.172c0,0.065,0.004,0.129,0.004,0.195
				c0,0.508-0.012,1.015-0.029,1.518h0.037c-0.002-0.137-0.008-0.271-0.008-0.408c0-12.646,5.383-23.548,13.148-28.574v-0.246
				C709.629,203.391,704.916,194.718,703.803,184.411z"/>
		</g>
	</g>
	<g class="st7">
		
			<image style="overflow:visible;opacity:0.75;" width="29" height="58" xlink:href="2D793681A45BCB39.png"  transform="matrix(1 0 0 1 646.873 432.7129)">
		</image>
		<g>
			<path class="st0" d="M655.963,430.379c-0.135,0.135-0.27,0.275-0.408,0.406c-0.84,10.107-5.123,18.762-11.197,23.645
				c6.465,5.562,10.773,15.475,10.773,26.785c0,0.057-0.004,0.115-0.004,0.172c0,0.064,0.004,0.129,0.004,0.197
				c0,0.506-0.014,1.014-0.029,1.516h0.033c0-0.135-0.004-0.27-0.004-0.406c0-12.646,5.381-23.549,13.146-28.574v-0.244
				C661.789,449.357,657.074,440.684,655.963,430.379z"/>
		</g>
	</g>
	<g class="st7">
		
			<image style="overflow:visible;opacity:0.75;" width="29" height="57" xlink:href="2D793681A45BCB3B.png"  transform="matrix(1 0 0 1 305.0068 233.0068)">
		</image>
		<g>
			<path class="st0" d="M314.704,230.403c-0.136,0.136-0.271,0.276-0.409,0.408c-0.839,10.107-5.123,18.761-11.196,23.645
				c6.464,5.563,10.772,15.475,10.772,26.785c0,0.057-0.004,0.114-0.004,0.172c0,0.065,0.004,0.129,0.004,0.195
				c0,0.508-0.013,1.015-0.029,1.519h0.034c0-0.137-0.005-0.272-0.005-0.408c0-12.646,5.381-23.549,13.146-28.574v-0.245
				C320.53,249.382,315.814,240.709,314.704,230.403z"/>
		</g>
	</g>
	<g class="st7">
		
			<image style="overflow:visible;opacity:0.75;" width="28" height="57" xlink:href="2D793681A45BCB26.png"  transform="matrix(1 0 0 1 368.8726 334.7124)">
		</image>
		<g>
			<path class="st0" d="M377.826,332.196c-0.136,0.134-0.271,0.275-0.409,0.408c-0.839,10.106-5.123,18.76-11.196,23.644
				c6.464,5.564,10.771,15.477,10.771,26.785c0,0.057-0.003,0.113-0.003,0.172c0,0.064,0.003,0.131,0.003,0.195
				c0,0.508-0.012,1.016-0.028,1.518h0.033c0-0.135-0.005-0.271-0.005-0.408c0-12.645,5.382-23.549,13.147-28.572v-0.246
				C383.652,351.176,378.936,342.502,377.826,332.196z"/>
		</g>
	</g>
	<g class="st7">
		
			<image style="overflow:visible;opacity:0.75;" width="29" height="58" xlink:href="2D793681A45BCB27.png"  transform="matrix(1 0 0 1 303.8726 554.7129)">
		</image>
		<g>
			<path class="st0" d="M313.204,552.5c-0.137,0.137-0.271,0.275-0.41,0.41c-0.839,10.107-5.122,18.758-11.196,23.643
				c6.465,5.562,10.771,15.477,10.771,26.785c0,0.059-0.002,0.113-0.002,0.174c0,0.064,0.002,0.129,0.002,0.193
				c0,0.51-0.012,1.016-0.027,1.52h0.034c-0.002-0.137-0.007-0.271-0.007-0.41c0-12.645,5.382-23.547,13.148-28.572v-0.246
				C319.029,571.479,314.313,562.807,313.204,552.5z"/>
		</g>
	</g>
	<path class="st5" d="M569.641,304.359"/>
	<g class="st7">
		
			<image style="overflow:visible;opacity:0.75;" width="29" height="58" xlink:href="2D793681A45BCB28.png"  transform="matrix(1 0 0 1 482.8726 425.7129)">
		</image>
		<g>
			<path class="st0" d="M491.905,423.609c-0.135,0.137-0.271,0.277-0.409,0.408c-0.839,10.107-5.123,18.762-11.196,23.645
				c6.466,5.564,10.772,15.477,10.772,26.787c0,0.057-0.004,0.113-0.004,0.172c0,0.064,0.004,0.129,0.004,0.195
				c0,0.508-0.013,1.014-0.029,1.518h0.035c-0.001-0.137-0.006-0.271-0.006-0.408c0-12.646,5.381-23.549,13.148-28.574v-0.244
				C497.731,442.59,493.017,433.916,491.905,423.609z"/>
		</g>
	</g>
	<g class="st7">
		
			<image style="overflow:visible;opacity:0.75;" width="28" height="58" xlink:href="2D793681A45BCB2B.png"  transform="matrix(1 0 0 1 482.8726 425.7129)">
		</image>
		<g>
			<path class="st0" d="M491.838,423.68c-0.136,0.135-0.269,0.275-0.409,0.408c-0.839,10.107-5.123,18.76-11.196,23.645
				c6.466,5.562,10.771,15.475,10.771,26.785c0,0.057-0.001,0.113-0.001,0.172c0,0.064,0.001,0.129,0.001,0.195
				c0,0.508-0.012,1.014-0.028,1.518h0.033c0-0.137-0.005-0.271-0.005-0.408c0-12.645,5.382-23.549,13.147-28.574v-0.244
				C497.665,442.658,492.949,433.986,491.838,423.68z"/>
		</g>
	</g>
	<g class="st7">
		
			<image style="overflow:visible;opacity:0.75;" width="29" height="57" xlink:href="2D793681A45BCB29.png"  transform="matrix(1 0 0 1 686.873 306.7124)">
		</image>
		<g>
			<path class="st0" d="M696.461,304.316c-0.139,0.136-0.271,0.276-0.41,0.408c-0.84,10.107-5.125,18.76-11.197,23.645
				c6.465,5.563,10.771,15.475,10.771,26.785c0,0.057-0.002,0.114-0.002,0.173c0,0.065,0.002,0.129,0.002,0.195
				c0,0.508-0.01,1.015-0.027,1.518h0.031c0-0.137-0.004-0.271-0.004-0.408c0-12.646,5.381-23.548,13.148-28.574v-0.245
				C702.285,323.296,697.568,314.623,696.461,304.316z"/>
		</g>
	</g>
	<g class="st7">
		
			<image style="overflow:visible;opacity:0.75;" width="29" height="58" xlink:href="2D793681A45BCB2F.png"  transform="matrix(1 0 0 1 147.0068 370.0068)">
		</image>
		<g>
			<path class="st0" d="M156.232,367.644c-0.138,0.135-0.271,0.275-0.41,0.408c-0.84,10.107-5.124,18.76-11.197,23.645
				c6.466,5.562,10.771,15.475,10.771,26.785c0,0.057-0.002,0.113-0.002,0.172c0,0.064,0.002,0.129,0.002,0.195
				c0,0.508-0.01,1.014-0.027,1.518h0.032c0-0.137-0.005-0.271-0.005-0.408c0-12.646,5.382-23.549,13.149-28.574v-0.244
				C162.056,386.623,157.34,377.95,156.232,367.644z"/>
		</g>
	</g>
	<g class="st7">
		
			<image style="overflow:visible;opacity:0.75;" width="29" height="58" xlink:href="2D793681A45BCB43.png"  transform="matrix(1 0 0 1 158.8726 580.7129)">
		</image>
		<g>
			<path class="st0" d="M168.193,578.861c-0.138,0.137-0.271,0.277-0.41,0.408c-0.84,10.107-5.124,18.762-11.197,23.646
				c6.466,5.562,10.771,15.475,10.771,26.783c0,0.059-0.002,0.115-0.002,0.174c0,0.064,0.002,0.129,0.002,0.195
				c0,0.508-0.01,1.014-0.027,1.518h0.032c0-0.137-0.005-0.271-0.005-0.408c0-12.646,5.382-23.549,13.149-28.574v-0.244
				C174.017,597.842,169.301,589.168,168.193,578.861z"/>
		</g>
	</g>
	<g class="st7">
		
			<image style="overflow:visible;opacity:0.75;" width="29" height="58" xlink:href="2D793681A45BCB4D.png"  transform="matrix(1 0 0 1 826.873 508.7129)">
		</image>
		<g>
			<path class="st0" d="M836.738,506.344c-0.139,0.137-0.271,0.277-0.41,0.408c-0.84,10.107-5.125,18.762-11.197,23.646
				c6.465,5.562,10.771,15.475,10.771,26.783c0,0.059-0.002,0.115-0.002,0.174c0,0.064,0.002,0.129,0.002,0.195
				c0,0.508-0.01,1.014-0.027,1.518h0.031c0-0.137-0.004-0.271-0.004-0.408c0-12.646,5.381-23.549,13.148-28.574v-0.244
				C842.562,525.324,837.846,516.65,836.738,506.344z"/>
		</g>
	</g>
	<g class="st7">
		
			<image style="overflow:visible;opacity:0.75;" width="29" height="58" xlink:href="2D793681A45BCB4F.png"  transform="matrix(1 0 0 1 775.0068 122.0068)">
		</image>
		<g>
			<path class="st0" d="M784.322,120.042c-0.137,0.136-0.271,0.276-0.41,0.408c-0.84,10.107-5.123,18.76-11.197,23.645
				c6.467,5.563,10.771,15.475,10.771,26.785c0,0.057-0.002,0.114-0.002,0.173c0,0.065,0.002,0.129,0.002,0.195
				c0,0.508-0.01,1.015-0.027,1.518h0.033c0-0.137-0.006-0.271-0.006-0.408c0-12.646,5.383-23.548,13.15-28.574v-0.245
				C790.146,139.021,785.432,130.348,784.322,120.042z"/>
		</g>
	</g>
	<g class="st7">
		
			<image style="overflow:visible;opacity:0.75;" width="29" height="57" xlink:href="2D793681A45BCB42.png"  transform="matrix(1 0 0 1 887.873 607.7129)">
		</image>
		<g>
			<path class="st0" d="M897.473,605.225c-0.137,0.135-0.271,0.275-0.41,0.408c-0.84,10.107-5.123,18.76-11.197,23.645
				c6.467,5.562,10.771,15.475,10.771,26.785c0,0.057-0.002,0.113-0.002,0.172c0,0.064,0.002,0.129,0.002,0.195
				c0,0.508-0.01,1.014-0.027,1.518h0.033c0-0.137-0.006-0.271-0.006-0.408c0-12.646,5.383-23.549,13.15-28.574v-0.244
				C903.297,624.203,898.582,615.529,897.473,605.225z"/>
		</g>
	</g>
	<g class="st7">
		
			<image style="overflow:visible;opacity:0.75;" width="29" height="57" xlink:href="2D793681A45BCB41.png"  transform="matrix(1 0 0 1 74.0068 176.0068)">
		</image>
		<g>
			<path class="st0" d="M83.371,173.561c-0.138,0.136-0.271,0.276-0.41,0.408c-0.84,10.107-5.124,18.76-11.197,23.645
				c6.466,5.563,10.771,15.475,10.771,26.785c0,0.057-0.002,0.114-0.002,0.173c0,0.065,0.002,0.129,0.002,0.195
				c0,0.508-0.01,1.015-0.027,1.518h0.032c0-0.137-0.005-0.271-0.005-0.408c0-12.646,5.382-23.548,13.149-28.574v-0.245
				C89.195,192.54,84.479,183.867,83.371,173.561z"/>
		</g>
	</g>
	<g class="st7">
		
			<image style="overflow:visible;opacity:0.75;" width="29" height="58" xlink:href="2D793681A45BCB45.png"  transform="matrix(1 0 0 1 940.873 406.7129)">
		</image>
		<g>
			<path class="st0" d="M950.68,404.717c-0.139,0.135-0.271,0.275-0.41,0.408c-0.84,10.107-5.125,18.76-11.197,23.645
				c6.465,5.562,10.771,15.475,10.771,26.785c0,0.057-0.002,0.113-0.002,0.172c0,0.064,0.002,0.129,0.002,0.195
				c0,0.508-0.01,1.014-0.027,1.518h0.031c0-0.137-0.004-0.271-0.004-0.408c0-12.646,5.381-23.549,13.148-28.574v-0.244
				C956.504,423.695,951.787,415.021,950.68,404.717z"/>
		</g>
	</g>
	<g class="st7">
		
			<image style="overflow:visible;opacity:0.75;" width="29" height="58" xlink:href="2D793681A45BCB47.png"  transform="matrix(1 0 0 1 74.0068 492.0068)">
		</image>
		<g>
			<path class="st0" d="M83.371,489.705c-0.138,0.137-0.271,0.275-0.41,0.408c-0.84,10.107-5.124,18.76-11.197,23.645
				c6.466,5.564,10.771,15.475,10.771,26.785c0,0.057-0.002,0.115-0.002,0.174c0,0.064,0.002,0.129,0.002,0.193
				c0,0.508-0.01,1.016-0.027,1.518h0.032c0-0.137-0.005-0.271-0.005-0.408c0-12.645,5.382-23.547,13.149-28.572v-0.246
				C89.195,508.686,84.479,500.012,83.371,489.705z"/>
		</g>
	</g>
	<g class="st7">
		
			<image style="overflow:visible;opacity:0.75;" width="29" height="58" xlink:href="2D793681A45BCB40.png"  transform="matrix(1 0 0 1 888.0068 206.0068)">
		</image>
		<g>
			<path class="st0" d="M897.473,204.04c-0.137,0.136-0.271,0.276-0.41,0.408c-0.84,10.107-5.123,18.76-11.197,23.645
				c6.467,5.563,10.771,15.475,10.771,26.785c0,0.057-0.002,0.114-0.002,0.173c0,0.065,0.002,0.129,0.002,0.195
				c0,0.508-0.01,1.015-0.027,1.518h0.033c0-0.137-0.006-0.271-0.006-0.408c0-12.646,5.383-23.548,13.15-28.574v-0.245
				C903.297,223.02,898.582,214.346,897.473,204.04z"/>
		</g>
	</g>
	<g class="st7">
		
			<image style="overflow:visible;opacity:0.75;" width="29" height="58" xlink:href="2D793681A45BCB7F.png"  transform="matrix(1 0 0 1 171.0068 239.0068)">
		</image>
		<g>
			<path class="st0" d="M180.153,237.308c-0.138,0.136-0.271,0.276-0.41,0.408c-0.84,10.107-5.124,18.76-11.197,23.645
				c6.466,5.563,10.771,15.475,10.771,26.785c0,0.057-0.002,0.114-0.002,0.173c0,0.065,0.002,0.129,0.002,0.195
				c0,0.508-0.01,1.015-0.027,1.518h0.032c0-0.137-0.005-0.271-0.005-0.408c0-12.646,5.382-23.548,13.149-28.574v-0.245
				C185.977,256.287,181.261,247.614,180.153,237.308z"/>
		</g>
	</g>
</g>
<g id="Layer_7">
	<g>
		<g>
			
				<image style="overflow:visible;" width="112" height="151" xlink:href="2D793681A45BCB7D.png"  transform="matrix(1 0 0 1 338.0791 125.165)">
			</image>
		</g>
		<path class="st0" d="M388.006,161.165c-0.008-0.024-0.527,5.839-0.535,5.815c-0.188,6.896-1.549,13.584-5.572,18.777
			c-3.12,5.001-7.602,8.863-13.394,10.743c1.798,1.673,3.455,3.532,4.972,5.479c4.55,4.519,7.795,10.607,10.082,17.33
			c1.585,3.684,3.76,16.959,4.447,20.856c0.59-7.097,1.46-23.369,6.348-28.805c2.412-2.682,5.319-5.423,8.532-7.88
			c1.423-1.557,2.936-2.998,4.551-4.275c0.022-0.032,0.047-0.063,0.069-0.095C394.255,195.132,388.138,175.371,388.006,161.165z"/>
	</g>
	<g>
		<g>
			
				<image style="overflow:visible;" width="112" height="152" xlink:href="2D793681A45BCB62.png"  transform="matrix(1 0 0 1 745 149.147)">
			</image>
		</g>
		<path class="st0" d="M794.006,186.119c-0.008-0.024-0.526,5.839-0.534,5.815c-0.188,6.896-1.549,13.584-5.571,18.777
			c-3.121,5.001-7.602,8.863-13.395,10.743c1.799,1.673,3.455,3.532,4.972,5.479c4.55,4.519,7.795,10.607,10.082,17.33
			c1.585,3.684,3.76,16.959,4.446,20.856c0.591-7.097,1.461-23.369,6.349-28.805c2.411-2.682,5.319-5.423,8.532-7.88
			c1.423-1.557,2.936-2.998,4.551-4.275c0.022-0.032,0.047-0.063,0.069-0.095C800.256,220.086,794.139,200.325,794.006,186.119z"/>
	</g>
	<g>
		<g>
			
				<image style="overflow:visible;" width="112" height="152" xlink:href="2D793681A45BCB5D.png"  transform="matrix(1 0 0 1 774.5 463.3232)">
			</image>
		</g>
		<path class="st0" d="M823.506,500.295c-0.008-0.023-0.526,5.84-0.534,5.815c-0.188,6.896-1.549,13.585-5.571,18.776
			c-3.121,5.002-7.602,8.863-13.395,10.743c1.799,1.673,3.455,3.532,4.972,5.479c4.55,4.52,7.795,10.607,10.082,17.33
			c1.585,3.684,3.76,16.959,4.446,20.855c0.591-7.097,1.461-23.369,6.349-28.805c2.411-2.682,5.319-5.424,8.532-7.881
			c1.423-1.557,2.936-2.998,4.551-4.275c0.022-0.031,0.047-0.062,0.069-0.095C829.756,534.263,823.639,514.501,823.506,500.295z"/>
	</g>
	<g>
		<g>
			
				<image style="overflow:visible;" width="112" height="152" xlink:href="2D793681A45BCB5E.png"  transform="matrix(1 0 0 1 719 324.6953)">
			</image>
		</g>
		<path class="st0" d="M768.006,361.667c-0.008-0.024-0.526,5.839-0.534,5.815c-0.188,6.896-1.549,13.585-5.571,18.776
			c-3.121,5.002-7.602,8.863-13.395,10.743c1.799,1.673,3.455,3.532,4.972,5.479c4.55,4.52,7.795,10.607,10.082,17.33
			c1.585,3.684,3.76,16.959,4.446,20.855c0.591-7.097,1.461-23.369,6.349-28.805c2.411-2.682,5.319-5.424,8.532-7.881
			c1.423-1.557,2.936-2.998,4.551-4.275c0.022-0.031,0.047-0.062,0.069-0.095C774.256,395.635,768.139,375.873,768.006,361.667z"/>
	</g>
	<g>
		
			<image style="overflow:visible;" width="112" height="152" xlink:href="2D793681A45BCB5C.png"  transform="matrix(1 0 0 1 488 33)">
		</image>
	</g>
	<path class="st0" d="M537.83,69.188c-0.008-0.024-0.526,5.839-0.534,5.815c-0.188,6.896-1.549,13.584-5.571,18.777
		c-3.121,5.001-7.602,8.863-13.395,10.743c1.799,1.673,3.455,3.532,4.972,5.479c4.55,4.519,7.795,10.607,10.082,17.33
		c1.585,3.684,3.76,16.959,4.446,20.856c0.591-7.097,1.461-23.369,6.349-28.805c2.411-2.682,5.319-5.423,8.532-7.88
		c1.423-1.557,2.936-2.998,4.551-4.275c0.022-0.032,0.047-0.063,0.069-0.095C544.08,103.155,537.963,83.393,537.83,69.188z"/>
	<g>
		<g>
			
				<image style="overflow:visible;" width="112" height="152" xlink:href="2D793681A45BCBA2.png"  transform="matrix(1 0 0 1 614.4941 564.5811)">
			</image>
		</g>
		<path class="st0" d="M663.501,601.554c-0.008-0.024-0.527,5.838-0.535,5.814c-0.188,6.896-1.549,13.584-5.572,18.777
			c-3.119,5-7.602,8.862-13.394,10.742c1.798,1.674,3.455,3.532,4.972,5.479c4.55,4.519,7.795,10.607,10.082,17.33
			c1.586,3.684,3.76,16.96,4.447,20.856c0.59-7.098,1.459-23.369,6.348-28.806c2.412-2.683,5.318-5.423,8.532-7.88
			c1.423-1.557,2.936-2.998,4.552-4.275c0.021-0.033,0.047-0.063,0.068-0.096C669.749,635.521,663.632,615.759,663.501,601.554z"/>
	</g>
	<g>
		<g>
			
				<image style="overflow:visible;" width="112" height="152" xlink:href="2D793681A45BCBA5.png"  transform="matrix(1 0 0 1 355.251 604.0801)">
			</image>
		</g>
		<path class="st0" d="M404.257,641.053c-0.008-0.024-0.527,5.838-0.535,5.814c-0.188,6.896-1.549,13.584-5.572,18.777
			c-3.12,5-7.602,8.862-13.394,10.742c1.798,1.674,3.455,3.532,4.972,5.479c4.55,4.519,7.795,10.607,10.082,17.33
			c1.585,3.684,3.76,16.96,4.447,20.856c0.59-7.098,1.46-23.369,6.348-28.806c2.412-2.683,5.319-5.423,8.532-7.88
			c1.423-1.557,2.936-2.998,4.551-4.275c0.022-0.033,0.047-0.063,0.069-0.096C410.506,675.02,404.389,655.258,404.257,641.053z"/>
	</g>
	<g>
		<g>
			
				<image style="overflow:visible;" width="112" height="152" xlink:href="2D793681A45BCBA6.png"  transform="matrix(1 0 0 1 202.999 163.6929)">
			</image>
		</g>
		<path class="st0" d="M252.005,200.665c-0.008-0.024-0.527,5.839-0.535,5.815c-0.188,6.896-1.549,13.584-5.572,18.777
			c-3.12,5.001-7.602,8.863-13.394,10.743c1.798,1.673,3.455,3.532,4.972,5.479c4.55,4.519,7.795,10.607,10.082,17.33
			c1.585,3.684,3.76,16.959,4.447,20.856c0.59-7.097,1.46-23.369,6.348-28.805c2.412-2.682,5.319-5.423,8.532-7.88
			c1.423-1.557,2.936-2.998,4.551-4.275c0.022-0.032,0.047-0.063,0.069-0.095C258.254,234.632,252.137,214.871,252.005,200.665z"/>
	</g>
	<g>
		<g>
			
				<image style="overflow:visible;" width="112" height="152" xlink:href="2D793681A45BCBA4.png"  transform="matrix(1 0 0 1 157.499 339.8613)">
			</image>
		</g>
		<path class="st0" d="M206.505,376.833c-0.008-0.024-0.527,5.839-0.535,5.815c-0.188,6.896-1.549,13.584-5.572,18.776
			c-3.12,5.002-7.602,8.863-13.394,10.743c1.798,1.673,3.455,3.532,4.972,5.479c4.55,4.52,7.795,10.607,10.082,17.33
			c1.585,3.684,3.76,16.959,4.447,20.855c0.59-7.097,1.46-23.369,6.348-28.805c2.412-2.682,5.319-5.424,8.532-7.881
			c1.423-1.557,2.936-2.998,4.551-4.275c0.022-0.031,0.047-0.062,0.069-0.095C212.754,410.801,206.637,391.039,206.505,376.833z"/>
	</g>
	<g>
		<g>
			
				<image style="overflow:visible;" width="112" height="152" xlink:href="2D793681A45BCBA3.png"  transform="matrix(1 0 0 1 332.501 364.1943)">
			</image>
		</g>
		<path class="st0" d="M381.507,401.167c-0.008-0.024-0.527,5.838-0.535,5.814c-0.188,6.896-1.549,13.584-5.572,18.777
			c-3.12,5-7.602,8.862-13.394,10.742c1.798,1.674,3.455,3.532,4.972,5.479c4.55,4.519,7.795,10.607,10.082,17.33
			c1.585,3.684,3.76,16.96,4.447,20.856c0.59-7.098,1.46-23.369,6.348-28.806c2.412-2.683,5.319-5.423,8.532-7.88
			c1.423-1.557,2.936-2.998,4.551-4.275c0.022-0.033,0.047-0.063,0.069-0.096C387.756,435.134,381.639,415.372,381.507,401.167z"/>
	</g>
	<g>
		<g>
			
				<image style="overflow:visible;" width="112" height="152" xlink:href="2D793681A45BCBAD.png"  transform="matrix(1 0 0 1 219.25 476.1934)">
			</image>
		</g>
		<path class="st0" d="M268.256,513.165c-0.008-0.023-0.527,5.84-0.535,5.815c-0.188,6.896-1.549,13.585-5.572,18.776
			c-3.12,5.002-7.602,8.863-13.394,10.743c1.798,1.674,3.455,3.532,4.972,5.479c4.55,4.519,7.795,10.607,10.082,17.33
			c1.585,3.684,3.76,16.96,4.447,20.856c0.59-7.098,1.46-23.369,6.348-28.806c2.412-2.683,5.319-5.423,8.532-7.88
			c1.423-1.557,2.936-2.998,4.551-4.275c0.022-0.033,0.047-0.063,0.069-0.096C274.505,547.133,268.388,527.371,268.256,513.165z"/>
</g>
</svg>
